<svg version="1" xmlns="http://www.w3.org/2000/svg" width="682.667" height="682.667" viewBox="0 0 512.000000 512.000000"><path d="M235 12c0 .5.5 1 1.1 1 .5 0 .7-.5.4-1-.3-.6-.8-1-1.1-1-.2 0-.4.4-.4 1zM257.6 14.3c.5 1.3.2 1.6-1.2 1.1-1.6-.5-1.6-.4-.4.5 1.3.9 1.3 1.1-.2 1.1-.9 0-1.9-.6-2.1-1.3-.4-1-.6-1-.6 0-.1.7-.8 1.3-1.7 1.3-.8 0-1.3-.4-1-.8.3-.5-.1-.9-.9-.9s-1.2.3-1 .7c.3.4-.5 1.6-1.7 2.6-2.1 1.9-2.1 1.9-.8-.5.7-1.5.8-2.1.1-1.7-.6.4-1.1.2-1.1-.3 0-.9-3.7-.9-4.7 0-1 .7-3 .2-4.1-1.1-.8-.8-1.1-.9-.7-.2.4.7.1 1.9-.5 2.7-.9 1.1-1.7 1.1-3.5.3-1.4-.6-2.2-1.5-1.8-2.1.4-.6.1-.7-.6-.3-.9.6-.8 1.2.4 2.6 1.1 1.2 1.3 2 .5 2.5-.6.3-.9.1-.8-.6.2-.6-.3-1.4-1.1-1.7-.8-.2-1.1 0-.7.6.3.6.1 1.4-.5 1.8-.8.5-.9.3-.4-.6.6-1 .3-1.2-1.1-.7-1.8.7-1.8.6-.1-.7 1-.8 1.4-1.7.9-2-.6-.3-1.3.1-1.6 1-.5 1.4-.9 1.4-2.3.3-1.2-1-1.4-1-.9-.2.7 1.2-.6 1.8-2.9 1.3-.5-.1-.5.4.2 1.1.9.9.9 1.7.2 3.2-.8 1.4-.8 1.8 0 1.3 1.7-1.1 1.3.2-.7 2.2-1 1-2.5 1.7-3.3 1.4-1.1-.3-1.1-.2.1.7 1.1.8 1.8.6 2.8-.6.7-1 1.2-1.2 1.2-.4 0 .7.5.9 1.2.5s.8-.3.4.5c-.4.6-1.2.9-1.7.6-.5-.4-1.3.4-1.7 1.6-.8 1.9-.9 2-1.5.5-.4-1-1.1-1.4-1.7-1.1-.5.3-1 .1-1-.6s-1.1.2-2.5 2.1c-1.3 1.8-2.2 3.7-2 4.1.3.4.1 1-.4 1.3-.5.4-.8-.2-.7-1.1.2-1-.3-2.7-1.1-3.9-.7-1.1-1-2.4-.6-2.9.5-.4.3-.5-.4-.1-.6.3-1 1.8-.7 3.2.3 1.7.1 2.3-.6 1.9-.6-.4-.9-1.3-.6-2.1.3-.8.1-1.4-.4-1.4-.6 0-1 .6-1 1.2 0 .9-.3.8-.9-.2-.6-.8-.7-1.8-.5-2.2.3-.4.1-.8-.4-.8-.6 0-1.3.7-1.6 1.6-.3.8-.2 1.2.4.9.6-.3 1-.2 1 .3s-1.9.9-4.2.9c-2.3 0-4.4.5-4.6 1.1-.2.7-.8 1.2-1.4 1.2-.7 0-.6-.5.1-1.4.6-.7.8-2.1.5-3.1-.5-1.3-.9-1.4-1.5-.3-.7 1.1-1.1 1-2-.2-.9-1.3-1-1.3-.6 0 .2.8 1.1 1.4 2 1.4.9-.1 1.4.2 1.1.8-.3.5-1.5.6-2.7.2-1.9-.6-2-.5-.9.9.9 1 1 1.7.2 2.2-.6.4-.9.1-.8-.6.2-.9-1.1-1.4-4.2-1.4-2.5-.1-5.9-.9-7.7-1.8-3.4-1.8-4.7-1.1-3.6 2 .4 1.3.1 1.2-1.6-.6-1.6-1.9-2.4-2.2-3.3-1.3-1.2 1.2-1 1.3 1.4 1.6.6 0 1.3.8 1.5 1.6.3.9.1 1.1-.4.5-.4-.6-2-1.1-3.5-1.1-2-.1-2.5.3-2 1.5.5 1.4.4 1.4-1.4.1-1.8-1.4-1.8-1.4-.5.3 1.4 1.8 1.6 1.8 2.8.1.7-1 1.3-1.3 1.3-.7 0 .7-.4 1.4-1 1.8-.5.3-.7 1.3-.4 2.3.4 1 .2 1.3-.3.7-.4-.6-1.7-1.7-2.8-2.5-1.5-1.1-1.7-1.1-.8 0 1 1.1 1 1.7-.1 2.9-.8.9-1.5 2-1.6 2.6-.1.5-.6.9-1.1.8-.5-.2-.9.2-.9.8 0 .6.7.9 1.5.5.8-.3 1.5-.1 1.5.4 0 1.2-4 1.7-7.2.9-3.4-.9-3.6-.6-3.4 5.8.1 2.8-.2 4.9-.6 4.7-.5-.3-.8 0-.8.6s-.6.8-1.2.4c-.7-.4-1-.4-.6.1.4.4.2 1.5-.4 2.4-.8 1-.4.9 1-.3 2.3-2 3.1-.9 1 1.3-1.1 1.1-.8 1.2 1.2.7 1.4-.3 1.9-.3 1.3 0-.7.3-1.3 1.3-1.3 2.1 0 1.4-.2 1.4-1.9-.1-1.3-1.2-2.1-1.4-2.6-.6-.3.6-.1.9.5.8.7-.2 1.7.5 2.3 1.5 1 1.4.9 2-.3 2.7-.8.5-1 1-.4 1s1.9-1 2.8-2.3c1.6-2.2 1.6-2.2.6 0-1.4 3.1-1.2 3.7.8 2.2 1.4-1.1 1.3-1-.2.9-1.1 1.2-1.4 2.2-.8 2.2.7 0 1.2.5 1.2 1.1 0 .5-.5.7-1.2.3-.7-.5-.9 0-.6 1.4.5 1.9.3 2-1.2 1.2-1.3-.7-2.1-.7-2.5 0-.4.6-.1.9.7.8.7-.2 1.2.4 1 1.4-.1.9.2 1.9.8 2.3.6.4.7-.1.4-1.2-.6-1.5-.4-1.5.9.2 1.6 2 1.3 4-.4 3-.5-.4-1 0-1.1.7 0 .7-.2 1.7-.2 2.3-.3 2-1.8 3.5-2.8 2.9-.7-.4-.8-.2-.4.5.6.9 1.1.9 2.2 0 2-1.6 1.7 0-.3 2.5-1.8 2.1-1.8 2.1.5.2 1.3-1.2 2.2-1.4 2.2-.7s.5.9 1.2.5.8-.3.4.5c-.4.6-1.1.9-1.6.6-1.3-.8-2.8 1.8-2.5 4.4.1 1.4.7 2.7 1.3 2.9.7.2 1.2.8 1.2 1.4 0 .6-.8.7-1.7.3-1.5-.5-1.6-.4-.5.6 1.8 1.9 1.5 2.8-.8 2.4-1.1-.2-1.8 0-1.5.5.3.4 1.1.7 1.8.6 2.6-.4 3.5-1.7 3.1-4.4-.3-1.5-.6-3.5-.7-4.4-.1-.9-.5-1.4-.9-1.2-.4.3-.8.1-.8-.4s1.1-1 2.5-1 2.5.4 2.5.9-.5.8-1.1.6c-.6-.1-1.4.4-1.7 1.2-.2.8 0 1.1.5.8 1-.7 1 5-.1 7.5-.4.9-.5 2.2-.1 2.9.6.8.2.8-1.3 0-1.4-.8-2.3-.8-2.7-.1-.4.6-.1.9.7.8.7-.2 1.2.4 1 1.4-.1.9.3 2 .9 2.4.7.4.9.3.5-.4-.9-1.6 1.4-2.6 2.7-1.3.9.9.7 1-.8.5-1.8-.7-1.8-.6-.6.9 1.2 1.5.9 2.1-1.1 1.8-.5 0-.9.5-1 1.2 0 .6-.2 1.6-.2 2.2-.3 2-1.8 3.5-2.8 2.9-.7-.4-.8-.2-.4.5.6.9 1.1.9 2.2 0 2-1.6 1.7 0-.3 2.5-1.8 2.1-1.8 2.1.5.2 1.3-1.2 2.2-1.4 2.2-.7s.5.9 1.2.5.8-.3.4.5c-.4.6-1.1.9-1.6.6-1-.6-3.5 2.3-2.6 3.2.3.3.6.1.6-.5 0-.7.5-1.2 1.1-1.2.5 0 .8.4.4.9-.3.6.3 1.4 1.2 2 1.4.8 1.5 1 .3 1.1-1.3 0-1.3.1 0 1 1.3.8 1.2 1-.4 1-1.2 0-1.6-.5-1.2-1.5.3-.8.1-1.5-.5-1.5s-.9 1-.7 2.2c.2 1.3.9 2.2 1.7 2 1.2-.3 1.2 0 .2 1.2s-.9 1.6.6 2.5c1.4.8 1.5 1 .3 1.1-1.3 0-1.3.1 0 1 1.3.8 1.2 1-.4 1-1.2 0-1.6-.5-1.2-1.5.3-.8.1-1.5-.4-1.5-.6 0-1 .9-1 1.9 0 1.1-.6 2.2-1.2 2.5-.7.3-.4.4.8.1 1.3-.4 2.6.1 3.5 1.2 1.2 1.6 1.2 1.7-.2.6-.9-.7-1.9-1-2.2-.6-.4.3.1 1.2 1.1 2 1.6 1.3 1.5 1.4-.5.8-1.2-.3-2.4-.1-2.8.4-.3.6 0 .9.7.6.9-.4 1.4.2 1.5 1.5.2 1.7-.1 1.9-2 .9-2.2-1-2.2-1-.2.6 1.7 1.4 1.8 1.7.5 2.5-.9.6-1 1-.3 1s1.7-.8 2.2-1.8c.9-1.5 1-1.5 1.1 0 0 .9.6 1.9 1.3 2.1.9.4.9.6-.1.6-.8.1-1 .6-.5 1.3.8 1.3.9 1.8 1.2 3.9 0 .5.7.7 1.4.2.6-.4.4.6-.7 2.2-1 1.7-1.3 2.5-.6 1.8.7-.6 2-.9 2.9-.6 1.4.4 1.4.3.1-.6-.9-.7-1-1.1-.3-1.1 2 0 2.6 2 1.1 3.8-1.1 1.5-1.1 1.5.3.5 2.1-1.6 3.2-.5 1.7 1.6-.8 1-.4.9.9-.3 2.2-1.9 2.3-1.8 3.1.4.5 1.4 1.1 1.9 1.6 1.2.3-.6.2-1.3-.4-1.7-.5-.3-1-1-1-1.5 0-1 2.7-.7 3.7.5.4.4.2.5-.4.1-1.6-.9-1.7.5-.3 2.2.6.6.7 1 .4.8-.3-.3-1.2 0-1.9.7-1 .9-.9 1.4.4 2.5 1.4 1.2 1.4 1.3-.3.7-1.6-.4-1.4 0 .7 2.1 1.5 1.4 2.4 3.1 2 3.7-.3.6-.1.7.6.3.9-.6.9-1.1 0-2.2-.8-1-.7-1.7.7-3.1 1.7-1.7 1.7-1.7 1.1-.1-1 2.7.2 5.1 1.9 3.7.7-.6 1.9-.7 2.6-.3 1.3.9 1.8 1 3.8 1.3.6 0 .9.7.8 1.3-.2.8.6 1.3 1.9 1.2 1.2 0 2 .3 1.7.8-.3.4-1.1.8-1.8.8-1.7 0-2.6 3.3-1.5 5.1.4.7.3 2.1-.2 3-.6 1.2-.4 2.2.7 3.3.9.9 1.9 1.4 2.3 1.2.4-.3.8.5.8 1.7.2 2 .1 2-.8.4-.6-.9-1.5-1.7-2-1.7-.6 0-.8.4-.5.8.3.5-.2 2-1.2 3.3-1.7 2.5-1.7 5.5-.1 7.6.7.7.5 1.4-.3 1.9-.7.4-1 .4-.6-.1.4-.4-.1-2-1.1-3.4s-1.6-3.3-1.4-4.1c.4-1.3.3-1.3-.6 0-.5.8-.6 1.9-.2 2.5.4.5 1.1 1.9 1.5 3 .6 1.6.5 1.8-.5.7-1.7-1.6-2.6-1.5-3.3.4-.5 1.2-.2 1.5.9 1 1-.3 1.3-.2 1 .5-.4.5-1.2.8-1.8.6-.7-.2-2.1 0-3.2.5-1.7.8-1.7.7.3-1.1 2.6-2.3 2.7-2.7.8-3.4-1-.4-1.3-.1-.9.9.3.9 0 1.4-.7 1.2-1.2-.3-2 2.1-2.3 6.7-.1 1.2.3 1.9 1.1 1.7.8-.1 1.1.2.7.8-.5.8-1.1.8-1.9.1-.7-.6-1.7-.7-2.1-.3-.5.4-.4 0 0-.8 1.2-2 1.4-5 .3-4.4-.5.4-.7 1.2-.4 2 .3.7-.3 1.8-1.2 2.3-1.4.8-1.5 1.2-.3 2.3 1 .9 1.2.9.7.1-.5-.9-.2-1.1.8-.7.9.3 1.6 1 1.6 1.6 0 .5-.4.6-1 .3-.5-.3-1 0-1 .7 0 1-.2 1-.8 0-1-1.5-5.2-2.5-5.2-1.1 0 .5-.3.8-.7.8-.5-.1-1.4-.1-2.2 0-2.2.2-.7 1.1 2.5 1.7 2.1.3 2.5.2 1.4-.5-1.2-.8-1-1 .8-.8 2.2.1 3.2 1.7 1.1 1.7-.8 0-.7.6.2 1.7 1.2 1.4 1 1.4-1.4-.1-1.5-1-2.8-1.6-2.8-1.2-.1.3-.2 1-.3 1.5 0 .5-.4 1.3-.8 1.7-.4.3-.5-.4-.3-1.6.2-1.2.2-2-.2-1.6-.3.3-1.3 0-2.2-.6-1.3-1-1.4-1-.3.2 1.7 2 1.5 3.5-.3 2-1.3-1.1-1.4-1-.9.5.6 1.4.4 1.6-.7 1-.8-.4-1.1-.5-.7 0 .4.4.3 1.7-.3 2.8-.9 1.5-.8 1.8.2 1.2.9-.6 1.1-.3.6.8-.4 1-.1 1.7.6 1.7s.4.5-.6 1.1c-.9.6-1.5 1.4-1.2 2 .4.5.2.9-.3.9-.6 0-1.3-.7-1.6-1.6-.4-1-.2-1.3.6-.8.7.5.8.3.3-.6-.6-.9-.4-1.1.6-.5 1.1.7 1.1.5-.1-1.1-2.2-2.9-2.4-3-1.7-1.2.4 1 .2 1.8-.4 1.8-.6 0-.8.7-.5 1.6.4 1.2.2 1.5-.9 1.1-.8-.4-1.7-.2-2 .3-.3.5-1.4.7-2.5.5-1.7-.3-1.9-.1-.9 1.7.8 1.5.8 1.9 0 1.4-.6-.4-1.1-.2-1.1.4 0 .6-.5.8-1.2.4-1-.6-1-.4 0 .8.8 1 .9 1.9.3 2.2-.5.4-1.4-.2-2-1.1-.6-1-1.1-1.3-1.1-.6 0 .6.7 1.9 1.7 2.8 1.5 1.6 1.5 1.7-.8 1.3-1.6-.2-2.4.2-2.4 1.2-.1.8-.6 1.4-1.2 1.3-.7-.2-1 .7-.7 2.3.4 2.2.2 2.5-1.7 1.9-1.6-.5-1.9-.4-1.4.5s.4 1.1-.3.6c-.6-.4-2-.1-3.1.6-1.5.9-2.3.9-3.4-.1-1.2-.9-1.7-.9-2.3 0-.4.8-.3.9.5.5.6-.4 1.4 0 1.7.8.3.9 1 1.3 1.5 1 .5-.3.6.2.3 1-.3.9-1 1.3-1.5 1-.5-.3-.6.3-.2 1.3.6 1.6.5 1.7-1.3.3-1.7-1.3-1.8-1.3-.8 0 .6.8 1 2.7.9 4.3-.1 1.5.1 2.5.4 2.1.3-.3.6-.9.6-1.2 0-.4.4-1.3.9-2.1.7-1 .5-1.2-.5-.6-1.1.6-1.2.5-.2-.5 1.6-1.7 3-.5 1.6 1.2-.6.7-.9 2.3-.7 3.6.2 1.3 0 2.1-.5 1.7-.5-.3-1.3 0-1.7.6-.4.8-.3.9.4.5 1.1-.6 1.6.6 1.3 2.6 0 .5.5.8 1.1.8.7 0 .5.5-.5 1.1-1 .6-2.4.8-3.2.5-.9-.3-1.2 0-.9.8.8 2-2.5 3.8-6.8 3.7-.9 0-1.9.7-2.2 1.5-.3.9-1 1.3-1.5.9-.5-.3-1.3 0-1.7.6-.4.8-.3.9.4.5 1.6-1 1.5.7-.1 2.3-.7.9-.7 1.1-.1.8.7-.4 1.5 0 1.8.9.3.8.2 1.3-.3 1-.5-.3-1.1.1-1.4.8-.4 1 0 1.3 1.4 1.1 1.1-.2 1.7 0 1.4.6-.4.5-1.3.9-2.2.9-1.2 0-1.2.3.4 1.7 1 1 1.4 1.5.7 1-.7-.4-1.4-.1-1.8.9-.9 2.3-.7 3.1.4 1.4.8-1.3 1-1.3 1 .1 0 .9-.3 1.9-.7 2.3-1.1 1-1.4 4.4-.4 5 .4.3.7-.5.6-1.9-.2-1.7.1-2.2 1.2-1.8.9.4 1.1.8.4 1.2-.6.4-.9 1.7-.7 2.8.3 1.5 0 2-.8 1.7-.7-.3-1.3.2-1.3 1s.4 1.3.8 1.1c.4-.3 1 .2 1.3 1.1.3.8.2 1.3-.3 1-.5-.3-1.2.1-1.5 1-.9 2.4-.7 3.1.4 1.4.8-1.3 1-1.3 1 .2 0 .9-.4 1.9-.9 2.2-1.5 1-.5 5.8 1.5 7.4 1.7 1.3 1.7 1.4.1.9-1.5-.6-1.6-.4-.7 1.3.8 1.5.7 1.8-.3 1.4-.8-.3-1.4.2-1.4 1s.4 1.3.9 1c.4-.3.8 0 .8.6s.5.8 1.2.4.8-.3.4.5c-.4.6-1.2.9-1.7.6-1.3-.9-1.1.9.4 2.4 1 1.1.9 1.3-.5.8-2.2-.8-2.4.8-.3 1.7.8.3 1.5 1.1 1.5 1.8 0 1-.2 1-.9 0-.7-1.1-.9-1.1-1.4.2-.4.9-.1 1.6.4 1.6.7 0 .9 1 .5 2.7-.4 1.6-.8 3.5-1 4.3-.5 2.2 1.3 5.2 2.6 4.4.7-.4.8-.2.4.5-.4.6-1.7.9-2.9.6-1.2-.2-1.6-.2-.9.1.6.3.9 1.1.5 1.7-.4.7 0 .8 1.1.4 1-.4 1.5-.3 1.1.4-.4.5-.1 1.8.7 2.7 1.2 1.5 1.1 1.6-.5.3-2.3-1.8-3.4-.7-1.3 1.4 1.9 1.9 2.2 3.2.3 1.7-1-.8-1.3-.6-1.3.9 0 1.1.5 1.8 1.3 1.5.7-.3 1.5 0 1.9.6.4.6.3.8-.3.5-.5-.3-1.4 1.2-2 3.3-.5 2.2-.7 3.7-.3 3.5.4-.3 1 .7 1.3 2.2.5 2.6.4 2.6-.9.8-.8-1-1.4-1.4-1.4-.8 0 .6.9 2.2 2.1 3.7 1.7 2.2 1.8 2.5.3 1.9-1.2-.4-1.5-.3-1 .6.4.6.2 1.9-.6 2.9-1.1 1.4-.8 1.4 1.7-.2l3-1.9-2 2.4c-1.1 1.3-1.6 2.1-1.1 1.7.5-.4 1.7-.3 2.7.2 1.2.7 2 .6 2.5-.2.4-.6.3-.8-.4-.4-.6.3-1.3.2-1.6-.3-.7-1 2-.9 3 .2.4.4 1.3-.1 2.1-1.1 1-1.3 1.3-1.4 1.1-.2-.2.8.3 1.4 1 1.2.8-.1 1.1.2.7.7-.3.6-1.3.7-2.2.4-1.2-.5-1.4-.3-.8.8.8 1.2.6 1.2-.8 0-1.1-.9-1.7-1-1.7-.2 0 .6.5 1.1 1.1 1.1.5 0 .7.6.3 1.2-.6 1-.4 1 .7.2.8-.5 2.8-1.6 4.4-2.2 2.6-1.1 2.8-1 1.3.1-2 1.6-1.4 2.8 1 2 1-.4 1.4-.3 1.1.1-.4.4-1.7.9-2.9 1.1-2.5.5-4.3 1.8-2 1.5 3-.4 5.1 0 4.5 1-.3.5-1.3.7-2.3.4-1.5-.5-1.5-.4.1.6 1.2.8 2.2.8 3 .1 1-.7 1.3-.5 1.4.9.1 1.1-.2 2.2-.8 2.5-.5.3-.7 0-.6-.7.2-.7.2-1 0-.7-.2.4-1.2.6-2.1.4-.9-.1-1.1 0-.4.2 1.1.4 1.1.8 0 2.1-1.1 1.5-1.1 1.5.3.5 1.3-1.1 1.9-1 3.3.5.9 1 1.3 2.2.9 2.7-.5.4.2.2 1.3-.5 1.9-1.2 2-1.6.8-2.7-1.7-1.8-1.7-2 .1-2 .8 0 1.2.4.9.8-.8 1.4 1.8 2.2 2.8.8.8-1.1.9-1.1.5.2-.7 2.1 1.1 3.9 3.2 3.2 1.4-.4 1.4-.3.1.6-1 .7-1.9.6-3-.4s-2-1.1-3-.4c-1.3.9-1.2 1 .2.6.9-.3 1.8-.1 2 .4.3.9 2.3 1.6 5.2 1.8.6.1.2.7-.9 1.4-1.2.9-1.4 1.6-.7 2.1.6.4.9 1.4.6 2.4-.5 1.3-.4 1.4.4.4.7-1.1 1-1.1 1.5.2.4.9.1 1.6-.6 1.6-.8 0-.7.3.2.9.8.5 2.1.7 3 .4 1.3-.4 1.2-.2-.2 1-1.6 1.3-1.6 1.5-.2 2.1.9.3 1.4.2 1-.3-.3-.5.1-1.2.7-1.4.9-.4.7-1.1-.7-2.4-3.9-3.4-4.7-5-3-5.7.9-.3 1.4-.2 1 .3-.8 1.4.5 4.1 2 4.1.7 0 1.6.7 1.9 1.6.3.8 1.1 1.2 1.6.9.8-.5.7-1.2-.2-2.3-1.1-1.5-1.1-1.5.3-.5.9.7 1.9 1 2.2.6.4-.3.7-.1.7.4 0 .6-.6 1.3-1.2 1.6-.9.3-.7 1 .6 2.3 1.6 1.5 1.7 1.6.7.1-1.1-1.4-1.1-1.7 0-1.8.8-.1 1.9 0 2.4.1.6.2 1.8.2 2.8.2.9 0 1.5.3 1.2.9-.4.5-.1.9.4.9 1.5 0 1.4-2.7-.1-3.3-.7-.3.5-.3 2.6-.1 2.2.2 4.2.7 4.5 1.1.3.3-.4.3-1.6 0-1.3-.3-2.5-.2-2.7.2-.9 1.4 3.7.9 6.2-.7 1.4-.9 2.8-1.5 3-1.4.2.2.7.1 1-.3.4-.4.2-.5-.5-.3-.6.2-1.1 0-1.2-.5-.3-2.2 0-2.7 1.2-2.1.9.6.9.4-.1-.8-1.3-1.6-1.2-1.9 1.5-6.7.2-.2 1 .2 2 1 1.5 1.2 1.6 1.2.8-.1-.5-.8-1.1-2.4-1.2-3.5-.2-1.2.5-.6 1.8 1.6 2.1 3.6 2.2 3.6 4.1 1.7 1.7-1.7 2.2-1.8 3-.7.8 1.2.9 1.2.6 0-.2-.8-1.4-1.5-2.6-1.6-1.1-.1-1.9.2-1.6.6.2.4 0 1-.5 1.3-.5.3-1.1-.1-1.5-.9-.5-1.5.5-1.9 3.3-1.5 1.3.2 1.3-.1 0-1.7-1.3-1.7-1.3-1.7.5-.3s1.9 1.3 1.3-.3c-.4-1.1-.3-1.6.4-1.2.6.4.8 1.3.5 2.1-.6 1.4.9 2 1.7.6.2-.4.2-.2.1.5-.2.6.4 1.4 1.3 1.7 1 .4 1.4.2 1-.8-.4-1-.1-1.3.9-.9.8.3 1.4-.1 1.4-.8 0-.9.3-1 .8-.3 1.2 1.7 3.9 2.3 5.1 1.1 1-.9 1.2-.9.9.3-.2 1 .4 1.4 1.7 1.3 1.1-.1 1.4 0 .8.3-.7.3-1.3 1.5-1.3 2.5 0 1.4-.4 1.8-1.2 1.3-.8-.5-.8-.1.1 1 .9 1 2.3 1.5 3.4 1.2 1.7-.4 1.7-.3.4 1.2-2.4 2.9-2.8 4-1.6 4.8.8.5.9.3.4-.7-.5-.8.1-.5 1.3.5 2.6 2.3 2.6 2.3.7 2.3-.8 0-1.1-.5-.8-1.1.3-.6 0-.5-.7.1-1.6 1.5-2.3 4.6-.9 3.7.5-.3.7-1 .4-1.5-.4-.5.2-.6 1.1-.2 1.1.4 1.3.8.6 1.1-.7.2-1.2.8-1.2 1.3 0 .6.5.7 1.2.3.6-.4.8-.3.4.4-.3.6-1.6.9-2.9.7-2.1-.4-2.1-.4-.3 1 1 .8 2.2 1.2 2.6 1 .4-.2.7.2.7 1 0 1-.5 1.1-1.8.5-2-1.1-3.6 1.4-1.7 2.6.7.4.8.3.4-.4-.5-.8-.1-1 1-.5 1 .4 1.3.8.7 1-.7.3-1 1.2-.7 2.1.5 1.5.4 1.5-.6-.1-.6-.9-1.5-1.5-2.1-1.2-.5.4-.9-.2-1-1.2 0-1.3-.2-1.4-.6-.4-.3.8.2 2 1.1 2.6 1.5 1.1 1.5 1.3.1 1.9-1 .4-1.4.2-.9-.5.4-.8-.1-.9-1.7-.4-2 .6-2.2.5-1.1-.6.6-.7 1.2-1.8 1.2-2.3 0-.6-.7-.1-1.5 1.1-.9 1.2-2.1 2-2.8 1.8-.6-.3-1.9-.1-2.7.5-1.3.8-1.3 1.1-.1 2.2 1 .9 1.2 1 .7.1s-.2-1.1.8-.7c1.2.5 1.1.9-.6 2.6-1.1 1.1-1.7 2.6-1.4 3.3.2.7-.1 1.9-.9 2.5-1.2 1-1.3.8-1-.8.2-1.2.9-3 1.5-4.1.9-1.7.8-2.1-.4-2.1-1 0-1.3.6-.9 1.7.4 1 .2 1.4-.4 1-.6-.4-1 .1-.9 1.1.1 1.1-.6 1.6-1.9 1.5-1.7-.1-1.6.1.7 1.8 1.7 1.2 2.5 2.6 2.1 3.5-.3.8.2 2.1 1.2 2.8 1.3.9 1.5 1.5.6 2-.6.4-.8 1.2-.5 1.8.4.7.2.8-.4.4-.7-.4-1.2-.3-1.2.3 0 .5.5 1.1 1 1.3.6.2 1.2 1.3 1.4 2.5.4 1.6.1 2-1.1 1.6-1-.4-1.1-.8-.3-1.3s.6-.9-.6-1.4c-.9-.3-1.9-.4-2.2-.1-.3.3 0 .5.8.5 1 0 1 .4-.1 1.7-.8.9-.9 1.4-.4 1.1.6-.3 1.6 0 2.3.8 1 1.1.8 1.3-1.8 1-1.6-.2-2.7.1-2.4.6.3.5 1.2.7 1.8.5 1.6-.7 3.7.6 3.9 2.4.2.8.6 2 1.1 2.7.7 1.1.4 1.1-1.3.1-1.2-.8-1.6-1.6-1-2 .6-.4.4-.9-.7-1.3-.9-.3-1.9-.4-2.2-.1-.3.3 0 .5.8.5 1 0 1 .4-.1 1.7-1.2 1.4-1.2 1.6 0 .9.9-.6 1.2-.5.9.5-.3.8-1.1 1.3-1.7 1.1-.7-.1-1 .2-.6.8.3.6 1.1.8 1.6.5 1.3-.9 1.1.9-.2 2.2-.9.9-.5 1.1 1.4.9 1.5-.2 2.4.1 2.1.5-.3.5-1.1.9-1.9.9-1.4 0-3.1 3.7-2.1 4.7.3.4.6-.1.6-1.1s.5-1.4 1.2-1c.7.4.8.3.4-.4s-.3-1.2.2-1.2c.6 0 .9 2.1.9 4.7-.1 3.3.3 4.7 1.1 4.6.7-.2 1.2.1 1.2.6 0 .6-.8.9-1.8.8-1.6-.1-1.8-.8-1.6-4 .2-2.2.2-3.8.1-3.6-.2.2-.9 1.3-1.7 2.3-.8 1.1-1 1.7-.3 1.3.8-.5 1.1 0 1 1.3-.1 1.4-.6 1.9-1.7 1.5-1-.3-1-.1.3.9 1.4 1.1 1.5 1.5.5 2-.7.3-.3.3 1 0 1.2-.3 2.2-.1 2.2.5 0 1-1.3 1.5-3.2 1.2-.4 0-.5.9-.2 2.2 1.1 4.7 1.1 5.2.2 5.8-.5.3-.4.9.4 1.1 1 .4 1.4-.4 1.4-2.8 0-1.9-.5-3.4-1-3.4-.6 0-.5-.5.1-1.1 1.4-1.4 3.6-.2 2.6 1.4-1.1 1.8-1.2 3.6-.2 4.2.5.3.3 1.4-.3 2.5-1 1.5-1.5 1.7-2.7.7-1.1-.9-1.3-.9-.8 0 .4.6.1 1.3-.5 1.6-.7.2-.1.4 1.5.4 1.5 0 2.7-.4 2.7-1s.2-.8.5-.5c1.3 1.3-.8 3.8-2.9 3.3-1.1-.2-1.5-.2-.8.1 1 .5 1 .9 0 2.2-1.1 1.3-1.1 1.4 0 .8 1.6-1 1.3 2.5-.3 3.6-.6.5-.5.8.3.8.7 0 1 .5.7 1-.4.6-1.2.7-1.8.4-.7-.4-.1.4 1.2 1.9l2.3 2.6h29.4c19 0 29.4-.4 29.4-1s.4-.8.8-.5c.4.2.8-.6.8-1.9 0-1.3-.4-2.1-.9-1.8-.5.3-.7 0-.5-.8.3-.8 1.2-1.3 1.9-1.1.8.1.1-.9-1.4-2.3-1.6-1.4-3.3-2.3-3.8-2-.5.4-.9.1-.9-.6 0-.6.8-.9 1.9-.6 1.2.3 2.2-.1 2.5-1 .3-.8.2-1.2-.3-.9-.5.3-1.2-.5-1.5-1.9-.4-1.4-1.1-2.5-1.6-2.5-.6 0-1-.5-1-1.2 0-.6.8-.4 1.9.6 1.9 1.7 2 1.7 3.1-.4.9-1.7.9-2.1 0-1.5-.7.4-1 .1-.8-1 .2-1.1-.4-1.9-1.5-2.1-1.1-.1-2.2-.6-2.5-1-.4-.4.1-.4 1.1-.1 1.3.5 1.7.3 1.4-.5-.2-.7-1.3-1.2-2.3-1.1-1.8.1-1.8.1-.1-1.2 1-.7 1.8-1.6 1.8-1.9-.2-1.9 0-2.6 1-2.6.8 0 .8.5-.1 1.5s-.9 1.5-.1 1.5c1.1 0 1.5-1.3 1.1-3.9-.1-1.2.1-1.3 1.3-.2 1.2.9 1.7.9 2.3 0 .4-.7.3-.9-.3-.6-.6.4-1.7-.1-2.4-1-1.2-1.5-1.2-1.6.3-1 1 .3 2 .2 2.2-.2.3-.5-.5-.8-1.7-.7-1.2.1-2.1.7-2 1.4.2.6-.6 1.6-1.7 2.2-1.4.7-2 .7-2 0 0-.5.6-1 1.4-1 1 0 1.3-.7 1.1-2-.2-1.1 0-1.8.6-1.5.8.6 1.3-.8 1-2.8-.1-.5.3-.6.9-.2.5.3 1 .2 1-.2 0-.5.9-.9 2.1-1 1.2-.1 1.9.3 1.6 1-.2.7-1.1 1.1-2 .9-.8-.1-1.8.2-2.1.6-.3.5.5 1 1.8 1 1.6 0 2.8-.9 3.5-2.5.9-1.9 1.5-2.2 2.4-1.5.8.7 1.8.7 2.7.2.9-.6 2-.4 2.9.3 1.2 1 1.4.9.9-.4-.4-.9-.1-1.6.7-1.6.7 0 1.1.6.8 1.3-.3.9.4 1.1 2.5.8 2.4-.4 3.2-.1 3.7 1.6.7 2.2 2.5 2.6 4.3.8.9-.9 1.2-.9 1.2 0 0 .7-.5 1.2-1.1 1.2-.5 0-.7.5-.4 1 .4.6 1.2.7 1.8.4.8-.5.8-.3 0 .6-1 1.1-1 1.7.3 3.1 1.4 1.6 1.4 1.7-.3 1.4-1-.1-1.7-.8-1.5-1.5.1-.6-.2-.8-.9-.4-.8.5-1.1.1-.7-1.3.3-1.2 0-2-.7-2-1.6 0-1.4 3 .3 4 .7.5 1 1.3.6 1.8-.3.5-.2.9.3.8 2.1-.4 4.3.2 4.3 1.1 0 .5-.7.7-1.5.4-.8-.4-1.5-.1-1.5.5s.6 1.1 1.4 1.1c.8 0 1.8.4 2.1 1 .4.7-.2.7-1.9 0-1.7-.6-2.7-.6-3.2.2-.4.7-.3.8.4.4s1.2-.2 1.2.4c0 .6.4.9.9.5.5-.3 1.2-.1 1.5.4 1.1 1.6-1.4 2.3-3.2.9-1.5-1.1-1.5-1.1-.5.2 1.4 1.9 1.4 3.1 0 4.9-1 1.2-.9 1.3.2.7.9-.6 1.2-.5.9.5-.3.8-1.1 1.3-1.8 1.1-1.1-.3-1.1 0 0 1.2.7.9.9 1.6.4 1.6-.4 0-.3.5.4 1.2 1.4 1.4 1.6 3.2.4 2.4-.5-.3-.9.1-.9.9s.5 1.1 1 .8c.6-.4.8 0 .4 1-.3.9-.3 1.6.1 1.6 1.9-.3 2.3.2 1.2 1.6-1 1.2-1 1.5.3 1.5.9 0 1.8.4 2.1.9.4.5-.4.7-1.6.3-1.3-.3-1.9-.1-1.4.6.9 1.5 73.6 1.7 73.6.2 0-.6-.4-.9-.8-.6-.4.2-1.4 0-2.2-.5-1.2-.7-1.1-.8.5-.6 1.1.1 2.5.6 3.1.9.6.4 1.1.1 1.1-.7 0-.8-.4-1.2-.9-.9-.5.4-.9 0-.7-.7.3-2.7-.1-4-1.1-3.4-.6.3-1 .1-1-.4 0-.6.5-1.1 1.2-1.1.6 0 .8-.3.5-.6-.4-.4-1.4-.1-2.3.7-1.6 1.3-1.6 1.2-.6-.8 1.4-2.6 1.6-4.4.2-2.3-.5.8-1.8 1.6-2.9 1.6-1.1.1-1.8-.3-1.5-.8.3-.4.9-.6 1.4-.3.5.3 1.2 0 1.6-.6.4-.7.3-.9-.4-.5-.5.3-1.3 0-1.5-.6-.4-1-.6-1-.6-.1-.1.7-.5 1.3-1.1 1.3-.5 0-.7-.8-.4-1.7.5-1.4.4-1.5-.4-.4s-1.1 1.1-1.6 0c-.3-.8-.3-.4 0 .8.3 1.3.2 2.3-.3 2.2-2.2-.2-4.8-1.8-4.8-3-.1-.8-.7-1.3-1.5-1.1-1.2.3-1.1-.1.2-1.4 2.3-2.4 4.9-.4 2.8 2.1-1 1.2-1 1.5.4 1.5 1.1 0 1.6-.9 1.6-2.6 0-1.6.4-2.3 1.2-1.8.7.4.8.3.4-.4-.4-.6-1.3-.9-2-.6-.8.3-1.7 0-2.1-.5-.3-.6-1-.9-1.4-.6-.5.2-.6-1.2-.4-3.1.2-2 0-3.3-.5-3-.4.2-.8-.4-.9-1.4-.2-2.1 2.3-3.5 3.3-1.8.5.7.2.8-.6.3-.9-.6-1.1-.4-.5.5.6.9.4 1.1-.5.5-.9-.5-1.1-.4-.6.4.6.9 1.1.9 2.2 0 .7-.6 1.2-1.5.9-1.9-.3-.5-.2-1 .2-1.3.5-.2.2-.2-.4-.1-.7.2-1.3-.2-1.3-.8 0-.6-.7-.5-1.7.3-1.6 1.3-1.7 1.2-.5-.3.8-.9 1-2.3.6-2.9-.4-.7-.3-1 .2-.7 1.4.9 4.4-3.6 3.4-5.2-.5-.8-1.2-1.1-1.7-.7-.4.5-.2 1.2.5 1.6 1 .6 1 1.1-.3 2.1-1.2 1-1.5 1-1.6-.1-.2-2.6.3-4.4 1.9-6.9 2-3.1 2.3-4.8 1-5.7-.7-.3-.8-.1-.4.5.4.7.2 1.2-.3 1.2-.6 0-1.1-.5-1.1-1.1 0-.5-.4-.8-.8-.5-1 .6-.9-2.4.1-4.1.4-.6.9-3 1.1-5.3.3-3.1.1-3.9-.7-3.1-1.4 1.4-2 5.4-.7 4.6.6-.3.7.1.4 1-.4.9-.9 1.3-1.2 1-.9-.9-1-7.5-.1-6.9 1.2.7 1.1-.3-.2-2.9-.9-2.1-.9-2.1.5-.4 1.2 1.5 1.8 1.7 3.3.7 1.7-1.1 1.7-1.1 0-.6-1 .3-1.6.2-1.2-.3.3-.5-.1-1.1-.7-1.4-.7-.2-.9-.8-.5-1.3s1.1-.4 1.5.2c1.2 1.7 4.2 2.5 3.6.9-.4-.9.1-1.2 1.3-1 1 .1 1.7.8 1.5 1.5-.1.6.2.9.8.5.8-.5.8-1.1.1-1.9-.6-.7-.7-1.7-.3-2.2.4-.4-.1-.2-1 .5-1 .7-1.8 1-1.8.6s-.7-.2-1.5.5c-1.3 1.1-1.4 1-.9-.5.6-1.4.4-1.6-.6-1-.8.5-1.1.4-.7-.2.3-.5 2.2-.9 4.2-.8 2.7.2 3.5-.1 3.1-1.2-.3-.8-.1-1.1.5-.8.5.4.7 1.5.4 2.4-.3 1.1 0 1.8.9 1.8 1 0 1.2-.7.6-2.8-.6-2.1-.5-2.7.5-2.3.8.3 1.1 1.2.9 1.9-.7 1.6 1.2 2.9 2.1 1.5.4-.6.2-1.7-.4-2.4-.8-1-.7-1.7.6-2.7 1.5-1.2 1.6-1.2 1 .4-.4 1.1-.3 1.6.4 1.2.6-.4.7-1.4.4-2.4-.4-.9-.9-2.9-1.2-4.5-.4-2.5-.2-2.8 1.4-2.2 1.4.6 1.5.5.6-.5-.9-.9-1.6-.9-2.6-.1-1 .9-1.4.9-1.4-.1 0-.6-.4-2-.8-2.9-.5-1.2.2-2.1 2.4-3.3 1.7-.8 3.1-1.8 3.1-2.1 0-.2-1 0-2.1.7-1.3.7-1.9.7-1.5.1.3-.6.2-1.3-.4-1.7-.5-.3-1-1.1-1-1.6 0-.6.4-.8.9-.5.9.6 2.5-3 2.2-4.8-.1-.5.5-.4 1.3.4.9.7 1.6.9 1.6.5 0-.5.9 0 1.9.9 1.2 1.1 2.1 1.4 2.6.7.4-.7 1.2-.8 2.4-.2 1.9 1.1 3.9 1 5.9-.2 1.2-.8 1.6-.2 1.3 1.8-.1.5.5.1 1.4-.9.8-1 1.2-2.4.8-2.9-.4-.6 0-.8 1-.4.9.3 1.9.2 2.2-.3.4-.6-.2-1-1.2-1.1-1.5 0-1.4-.2.4-.9 1.6-.7 2.1-1.4 1.6-2.6-.6-1.5-.4-1.5 1.4.2 1.1 1 1.8 2.3 1.5 2.8-.2.4-.8.2-1.3-.5-.5-.8-.9-1.2-1-.9 0 .3-.2 1.5-.5 2.7-.2 1.3.1 2.3.7 2.3.5 0 .7-.4.4-1-.6-.9.8-1.4 2.7-1.1.5 0 .7-.2.7-.7-.1-.4 0-1 .1-1.5.4-1.2.7-2.6.9-3.8 0-.5.6-.7 1.1-.4.6.3 1 .1 1-.4 0-1.8-1.8-1.3-3.3.9-.8 1.1-1.6 1.7-2 1.4-.3-.3.3-1.4 1.4-2.5 1.1-1.1 1.7-2.4 1.3-3-.3-.6.9-.3 2.7.6 2.9 1.3 3.1 1.4 1.5 0-1.1-.8-2.1-2.2-2.2-3.1-.1-.9 0-1.3.3-1 .4.3 1.4-.1 2.4-1 1.2-1.1 2.3-1.3 3.5-.6 1.1.6 1.3 1.1.5 1.6-.6.4-1.1.2-1.1-.3 0-.6-.4-1.1-.8-1.1s-.8 1-.8 2.3c0 1.3.6 2.4 1.3 2.4.6 0 1-.3.8-.7-.3-.4.4-1.5 1.5-2.5s2-1.5 2-1c0 .4.7.2 1.5-.5 1.3-1.1 1.2-1.6-.7-4.4-2-2.8-2-2.9-.3-1.6 1.1.8 2.4 1.9 2.8 2.5.5.6.6.2.3-.8s-.6-2.3-.6-2.8c0-.6-.4-.8-.8-.5-.5.3-.9-.1-.9-.9s.3-1.3.6-1.3c.3.1 1.4-.2 2.4-.7 1.3-.5 1.5-1.1.7-2-1.1-1.3-.8-1.3 2.9-.6.2.1-.2.7-.8 1.5-.9 1.1-.9 1.6 0 2.2.8.4.9.3.5-.4s-.2-1.2.3-1.2c.6 0 1.1-.6 1.1-1.4 0-.7.8-2 1.8-2.7 1.5-1.3 1.6-1.2.3.3-1.5 2-.2 2.5 1.7.6 1.3-1.3 1.7.2.5 1.8-.5.5.3-.3 1.7-1.9 2.1-2.3 2.8-2.6 3.9-1.5.9.8.8.3-.2-1.2-2.2-3.2-2.2-4.6.1-2.9 1.5 1.3 1.6 1.2.3-.4-.7-.9-1.1-1.7-.7-1.7.3 0 .1-1.1-.4-2.4-.6-1.7-.5-2.6.3-3 .7-.3.2-.3-1 0-1.3.3-2.3.1-2.3-.5 0-.9 2.7-1.6 5.2-1.2.7 0 .5-1.6-.7-4.2-.9-2.1-2.2-2.2-2.2-.2 0 .8.4 1.2.8.9.4-.2 1 0 1.3.5.4.5.1 1.3-.5 1.7-1.2.7-3.1-1.5-2.3-2.8.3-.5-.1-1.1-1-1.4-.8-.3-1.7-1.3-2.1-2.2-.5-1.3-.2-1.3 1.5.3 1.2 1.1 2 1.3 2 .6 0-.7.5-.9 1-.6.6.3 1 .1 1-.4 0-.6-.4-1.1-1-1.1-.5 0-1-.5-1-1.1 0-.6.8-.8 1.8-.5 1.5.5 1.5.4.2-.6-.8-.7-1.6-3-1.7-5.1-.1-3.4 0-3.7 1.5-2.5.9.8 1.3.8.9.1-.4-.6-.2-1.3.5-1.5.9-.3.9-.6 0-1.2-.7-.4-1.2-.2-1.2.5 0 .8-.5.7-1.7-.2-1-.8-1.4-.9-1-.2.4.6.3 1.4-.2 1.7-1 .7-.9-1.3.2-3.1.4-.6.3-1.4-.3-1.8-.5-.3-1-.1-1 .4 0 .6-.5 1.1-1.2 1.1s-.5-.7.5-1.8c1.9-2.1 2-3.3.2-5.2-1-1.1-1.1-2-.4-3 .8-1.2.9-1.1.7.5-.2 1.1.2 1.9.8 1.8.7-.1 1 1 .9 2.7-.2 2.8-.2 2.8 2.1 1.3 2-1.3 2.5-3.3.8-3.3-.3 0-.2.4.1 1 .3.5.2 1-.3 1-1.6 0-2.2-1.3-1.1-2.7.6-.7.8-1.3.4-1.3s-.1-.8.6-1.8c1.3-1.5 1.2-1.6-.3-.3-1 .7-1.5 1.8-1.1 2.4.3.6.1.7-.6.3-.6-.4-.9-1.1-.6-1.6.3-.5.1-1.1-.5-1.5-1-.6-.9-3.2.3-5.1.7-1.2-.1-2.4-1.5-2.4-.5 0-.6.5-.2 1.2.4.7.3.8-.5.4-1.5-1-.3-2.9 1.5-2.2 1.6.6 1.9-1 .4-1.7-.6-.3-.5-.4.2-.3.7.2 1.3 1.5 1.2 2.9-.1 1.5.3 2.4.7 2.1.5-.3.9 0 .9.5 0 .6.5 1.1 1.1 1.1.8 0 .7-.6-.2-1.7-.8-.9-1.3-2.4-1.1-3.5.2-1-.2-1.8-.8-1.8-.6 0-.9-.4-.5-.9.3-.6 1.4-.8 2.5-.6 1.2.2 1.8 0 1.5-.6-.4-.5-1-.7-1.5-.4-1.2.7-3.3-2.3-2.7-3.9.3-.8-.1-2-.8-2.6-1.7-1.4-1.4-4.8.6-6 1-.7 1.4-2.9 1.5-7.5 0-5.6-.2-6.6-1.9-7.1-1.4-.4-1.6-.8-.7-1.4.7-.4 1.3-1.9 1.3-3.4 0-1.4.5-2.6 1.1-2.6.6 0 .3-.5-.7-1.1-.9-.6-1.5-1.4-1.3-1.8.3-.4-.1-.8-.9-.8s-1.2.4-.9.9c.3.4 0 .8-.6.8s-.8.5-.4 1.2.3.8-.4.4c-.8-.4-.8-1.5-.2-3.1.6-1.5.6-2.5 0-2.5-.5 0-1.1.9-1.5 2-.4 1.2-1.3 1.9-2.6 1.7-2.4-.4-5.3-4.3-4.3-5.9.4-.7.3-.8-.4-.4s-1.2.1-1.2-.8c0-1 .6-1.3 1.8-1 1.4.5 1.4.4.2-.4-1-.8-1.8-.8-2.7 0-.9.7-1.3.7-1.3 0 0-.6.5-1.4 1-1.7.7-.4.7-1.3 0-2.6-.6-1.1-1.5-1.7-2.1-1.4-.5.4-.9.1-.9-.4 0-1.5 1-1.4 2.9.3 1.4 1.3 1.6 1.1 1.5-2.2 0-2 .4-4.4 1-5.2 1-1.3.9-1.3-.6-.1-1.2.9-1.8 1-1.8.2 0-.6.7-1.4 1.5-1.7.8-.4 1.5-1.1 1.5-1.6 0-.6-.7-.4-1.7.3-1.3 1.1-1.7 1.1-2 .1-.3-.6-.8-1-1.2-.7-.5.2-.7-1.2-.6-3.3.2-2 .1-3.1-.2-2.4-.3.6-1 .9-1.5.6-.6-.4-.8-.2-.4.4.3.6-.1.9-1.1.7-1-.2-2.1-.4-2.5-.4-.5-.1-.8-.6-.8-1.2 0-.8.6-.7 1.8.2 1.5 1.2 1.6 1.2.5-.2-.7-.9-1.1-1.8-.8-2.1.3-.3-.1-1.1-1-1.8s-1.5-.8-1.5-.2c0 .6.4 1.2.8 1.4.4.1.2 1.4-.5 2.8l-1.3 2.5v-2.6c0-3.2-2.5-4.5-3.9-2.1-.6.9-1.1 1.2-1.1.5 0-.6.5-1.5 1-1.8.6-.4.8-1 .5-1.5-.3-.5.2-2.2 1.2-3.7s1.3-2.4.7-2c-.7.4-1.4-.1-1.6-1.1-.5-1.7.1-2 4.9-2.4.7-.1 1-.5.7-1-.3-.4.2-.8 1-.8 1 0 1.3.6 1 1.5-.4.8-.1 1.5.5 1.5s1-.3.9-.8c-.2-.4 0-.7.3-.7s1.3-.6 2.2-1.3c1.6-1.3 2-5.2.5-5.2-.4 0-.8-.5-.8-1.1 0-.8.5-.8 1.5.1.8.7 1.3 1.6 1 2-.3.4.2 1.3.9 1.9 1.1.9 1.6.9 2.2 0 .4-.7.3-.9-.4-.5-.6.3-1.3.2-1.7-.4-.3-.6.1-1.3.9-1.6.9-.3 1.6-1.1 1.6-1.6 0-.7-.4-.7-1.2-.1-.9.7-1.9.4-3-.9-2-2-1-2.6 1-.6.9.9 1.2.8 1.2-.4 0-.9-.6-1.8-1.2-2.1-.7-.2-.5-.3.4-.2 1 .2 2.1-.2 2.5-.7.3-.7.1-.8-.5-.4-1.6 1-1.5-.7.1-2.3 1-1.1 1-1.3 0-.7-.8.4-1.3.1-1.3-.8s.6-1.6 1.2-1.6c.7 0 .2-.7-1-1.6-1.2-.8-2.8-1.2-3.5-.9-.6.4-.3-.1.8-1 1.8-1.4 2.1-1.4 3.4.2 1.2 1.6 1.3 1.6.8.1-.3-.9-.1-1.9.6-2.2.8-.3.8-.5-.2-.5-1.1-.1-1.1-.4-.1-1.6.7-.8 1.6-1.3 2-1 .5.3.7-.2.6-1.1-.1-.8-.8-1.9-1.5-2.3-1-.6-.9-1 .4-1.4.9-.4 1.3-.3 1 .3-.3.6-.1 1 .4 1 2 0 2.6.2 3.8 1.2 2.1 1.7 3.6-.2 1.8-2.2-1.2-1.4-1.3-2-.4-2.6.7-.4 1-.3.6.2-.3.6.3 1.5 1.4 2.2 1.1.7 1.9.8 1.9.2 0-.5-.4-1-.9-1s-1.1-.9-1.4-1.9c-.3-1.3 0-1.8.7-1.5.7.3 1.3-.2 1.3-1.1 0-.8-.4-1.5-.8-1.5s.5-1.4 1.9-3c1.5-1.7 3.2-3 3.8-3 .7 0 1.5-.6 1.7-1.3.4-.9.6-.9.6 0 .1.7.6 1.3 1.2 1.3.7 0 1.8.8 2.5 1.7 1.2 1.6 1.3 1.6.8.1-.4-1.2-.1-1.6 1.3-1.4 1 .2 1.3.1.6-.1-1.4-.5-2.6-3.4-1.2-3 .6.1 1.8-.9 2.7-2.3.9-1.3 1.2-2.1.5-1.7-.6.4-1.3.1-1.6-.5-.5-1.7 1.3-5.8 2.6-5.8.6 0 .7-.3.4-.6-.4-.4-1.4-.1-2.2.6-1.4 1.2-1.5 1.1-.4-1.3.7-1.5 1.7-2.4 2.3-2 .6.3.2-.3-.9-1.4-1.1-1.1-2.4-1.8-2.9-1.5-.5.3-.6 0-.2-.7.6-.8 1.2-.9 2-.2.9.8 1.3.7 1.3-.4 0-.8-.5-1.5-1-1.5s-.3-.8.4-1.7c1.2-1.5 1.2-1.6-.5-1-1.4.6-1.6.4-.9-.5 1-1.4.9-4.3-.2-6.9-.3-1-.2-2 .4-2.4.6-.3 1.1-1.1 1.1-1.6 0-.6-.4-.8-.9-.4-.5.3-1.3 0-1.7-.6-.4-.7-.3-.9.3-.6.6.4 1.6 0 2.3-.8 1-1.2 1-1.5 0-1.5s-1-.3 0-1.5c.7-.8.9-1.6.4-1.7-.5 0-1.3-.2-1.9-.3-.5-.2-1.6-.3-2.3-.4-1-.1-1-.6-.2-2.4 1.1-2.1 1-2.1-.4-.3-1.1 1.4-1.3 2.3-.5 3.2.7.9.1 1.1-2.6.8-2.5-.2-3.4 0-2.9.9s.4.9-.6 0c-.7-.6-1.9-.9-2.6-.6-.8.3-1.4.1-1.4-.5 0-.5.8-.9 1.8-.9 3.3 0 4.2-.3 4.2-1.4 0-.8-.5-.8-1.5.1-1.2 1-1.6.9-2.1-.4-.6-1.5-.7-1.5-1.9 0-1.1 1.6-1.3 1.6-2.3-.2-.6-1-1.2-1.4-1.2-.7 0 .6.5 1.5 1 1.8.6.3 1 1.2.9 1.8 0 .9-.2.9-.6-.1-.2-.6-1.1-1.2-1.9-1.2-.9 0-1.2-.5-.8-1.2.4-.7.3-.8-.4-.4s-1.2.1-1.2-.6c0-1-.2-1-.9 0-1 1.7-1.8 1.7-3.7-.3-1.8-1.8-2.9-1.3-3.7 1.4-.3 1.3-.1 1.8.9 1.4.7-.2 1-1.2.7-2.1-.6-1.5-.4-1.5 1.4.1 1.1.9 2.3 1.4 2.7 1 .4-.4.4.1 0 1.2-.5 1.1-.9 1.4-1.2.7-.2-.7-.8-1.2-1.3-1.2-.6 0-.7.5-.4 1 .9 1.5-3.3.6-4.8-1-.9-1-.9-1.1 0-.6.9.5 1.1.2.6-.9-.3-.9-.9-1.2-1.2-.7-.3.5-1.5.8-2.6.6-2.2-.3-4.8 1.4-4 2.6.3.5.1 1.1-.4 1.4-.5.4-1.3.1-1.7-.5-.5-.8-.3-.9.5-.4 1 .6 1.1.3.2-1.3-1.4-2.7-2.8-3.5-2.8-1.7 0 .8.4 1.2.9.9.4-.3.8-.1.8.4 0 .6-.7 1.3-1.5 1.6-.9.3-1.5 1.1-1.4 1.8.4 3.5-.2 5-1.7 4.4-1.4-.5-1.5-.4-.4.9.7.8 1.7 1.2 2.3.8.6-.3.7-.1.3.5-.4.7-1.6 1.6-2.6 2.2-1.6.9-1.8.7-1.5-1 .2-1.1 0-1.8-.5-1.5-.5.3-.7 1.4-.5 2.5.3 1.3-.2 1.8-1.6 1.7-1-.1-1.9-.6-1.9-1.1 0-.5-.6-.1-1.4 1-.8 1.1-1.1 2.3-.6 2.9 1 1.2.8 4-.3 5.1-.3.4-.4-.6-.1-2.2.3-2.5.2-2.7-.8-1.3-.7.9-2 1.4-2.8 1.1-1.1-.4-1 0 .3 1.3 2.1 2 1.1 3.7-2.4 4-1.5.1-2.3.9-2.6 2.4-.2 1.4.1 2 .8 1.6.6-.4.8-1.3.5-2.1-.8-2.2.2-1.7 1.5.7.8 1.5.8 1.9 0 1.5-.6-.4-1.1-.3-1.1.2s-.8 1.2-1.7 1.6c-1 .3-2.5.9-3.3 1.2-1.3.5-1.3.4 0-.5.8-.6 1.6-2 1.6-3.1.1-1.9-1-1.9-1.2.1-.1.5-.2 1.2-.3 1.5 0 .3-1-.4-2.2-1.7-1.9-2.3-2-2.3-1-.2 1.4 2.7 1.4 4.4.1 2.1-.6-.9-1.9-1.5-3-1.3-2.3.5-3.2-.7-2.4-3 .6-1.5.9-1.4 2 .6 1 1.8 1.3 2 1.4.7 0-.9.6-1.9 1.3-2.2.6-.3.3-.4-.8-.3-1.2.1-1.9-.3-1.7-1.1.1-.8-.2-1.1-.8-.7-.5.3-1.7.2-2.6-.3-1.5-.8-1.5-1 0-1.5 1-.4 1.5-.3 1.1.3-1 1.6.1 1.1 1.6-.7.8-.9.9-1.4.3-1-.7.4-1.8 0-2.5-.9-1-1.3-1-1.7 0-2.4.9-.5 1-1 .2-1.4-.6-.4-1.1-1.3-1.1-1.9 0-.8.3-.7.9.2.7 1 1.2 1.1 2.7.1 1.8-1.1 1.8-1.1.1-.6-1.8.6-1.8-.2 0-5.2.3-.6 0-1.2-.7-1.2-.6 0-.9.4-.6.8.2.4.1 1.4-.5 2.2-.6 1.1-.9 1.1-1 .2-.3-2.2-.4-2.7-1.4-4.2-.8-1.3-.7-1.3 1 0 1.7 1.4 1.8 1.3 1.2-.3-.9-2.5.2-4.7 2.1-4 1.3.4 1.2.2-.3-1.1-1.1-1-1.5-1.5-.9-1.2.5.2 1-.6 1-1.9 0-1.3-.4-2.1-.8-1.9-.5.3-.5 1.1-.2 1.7.4.7.3.8-.2.4-2.7-2.5.2-5.3 3-2.9 1.7 1.4 1.7 1.3-.2-1.2-1.7-2.2-2-3.2-1.1-4.3.9-1 .8-1.8-.4-3.1-1.1-1.1-1.3-2.2-.7-3.2 1.2-2-.9-4.7-2.2-2.8-.7 1-.9 1-.5-.2.2-.8 1.1-1.4 2-1.2 1.1.2 1.5-.2 1.1-1.3-.3-.8-1.1-1.2-1.8-.9-.6.3-.4 0 .5-.8.9-.7 1.5-2.1 1.3-3.1-.1-.9.1-1.5.6-1.2.5.3 1 .2 1.3-.2.2-.5.3-.3.1.3-.3 1.4 4.4 1.6 5.2.2.3-.5 1.2-.4 2 .3.7.6 1.1 1.6.7 2.2-.3.6-.1.7.5.3.6-.3.9-1.6.7-2.7-.3-1.6 0-1.9 1.3-1.4 1.1.4.9-.2-.8-2.1-1.4-1.5-1.9-2.4-1.1-1.9 1.1.6 1.3.4.8-.9-.4-1.1-.3-1.5.4-1.1.6.4.8 1.4.4 2.3-.3.9-.3 1.3.1.9s1.3.1 2 1.1c1 1.2.9.5-.2-2.2-1.3-3.2-1.3-3.8-.1-3.3 1.9.7 4.3-.8 2.8-1.7-.6-.4-1.1-.2-1.1.5s-.8.5-2-.6c-1.8-1.6-2.5-1.4-2.1.8.1.5-.3.6-.9.2-.8-.5-.8-1.1.1-2.1.6-.7 1.6-1.1 2.2-.7.6.4.8 0 .4-1-.3-1-.2-1.7.4-1.7.6 0 .8-.4.4-.9-.3-.5-.1-1.2.5-1.6.6-.4.7-1.1.4-1.7-.5-.7-.1-.9.9-.5 2.3.9 2.1 0-.2-1.3-1.7-.9-1.9-.7-1.6 1 .3 1.3 0 1.8-.7 1.4-.6-.4-.8-.3-.4.4.3.6.1 1.4-.6 1.9-1.6 1-4.2 1.4-3.3.5.4-.4 1.1-.8 1.6-.8.5-.1 1.2-.2 1.5-.3.4 0 .1-.8-.6-1.6-.7-.9-1-1.8-.6-2.2.3-.3.6-.1.6.6s.5.9 1 .6c.8-.5.7-1.1-.1-2.1-.6-.8-.9-1.5-.5-1.5.3-.1 1.2-.2 1.9-.3.6-.1 1.1-.7 1-1.4-.2-.7.1-1.2.6-1.2s1.2-1.1 1.5-2.5c.5-1.8 1.1-2.3 2.4-1.8 1.5.6 1.6.5.2-1.3-1.4-1.8-1.4-1.8.3-.5 1.4 1.1 1.5 1.6.5 3-.7.9-1.7 1.9-2.3 2.3-.7.5-.7.8 0 .8.6 0 1.8-.9 2.8-2 .9-1.1 2.3-1.7 3.2-1.4.8.4 1.5.1 1.5-.6 0-.6-.4-.9-.9-.5-1 .6-2.4-1.1-2.7-3.2-.2-.9.3-1 1.4-.4 1.9.9 4.2.4 4.2-.9 0-.5-.8-.7-1.8-.5-1.2.2-1.8-.3-1.8-1.7 0-1.7.2-1.7 1.2-.4.9 1.3 1.3 1.4 2.1.4.6-.7.9-2.1.8-3-.2-1.1.2-1.5 1.2-1.1 1 .4 1.1.8.3 1.3s-.6.9.6 1.4c.9.3 1.9.4 2.2.1.3-.3-.1-.5-.8-.5-.7 0-1-.3-.7-.7.4-.3.2-1.2-.4-2-.6-.7-1-1.3-.8-1.4 3.2-.6 3.7-.6 3.3.6-.3.7.2 1.5 1.2 1.9 1.4.5 1.5.4.4-.9-.7-.8-.9-1.5-.4-1.5s0-.8-1.1-1.7c-1.5-1.2-1.6-1.4-.3-1 .9.3 1.9.3 2.1-.1.2-.4.2-.1.1.5-.2.7.1 1.3.6 1.3.6 0 1-.5 1-1.2 0-.6.6-.4 1.3.6 1.2 1.6 1.4 1.6 2.6.2.7-.9 1.7-1.3 2.2-1 .5.3.9 0 .9-.6 0-.7-.7-1-1.5-.6-.9.3-1.5 0-1.5-1 0-.9.6-1.4 1.3-1.1.8.3 1.4-.1 1.4-.9 0-.9-.6-1.3-1.6-.9-1.3.5-1.3.4.1-1.2 1-1.2 1.3-2.5.8-3.8-1.2-2.8-1.2-3.5.1-3.5.5 0 .8.4.4.9-.3.5 0 1.3.7 1.7.7.4 1 .4.6-.1-1-1.1 1.2-3.6 2.4-2.9 1.4.9-.8-3-2.5-4.4-1.1-.9-1.4-.8-1.4.3 0 .8.5 1.1 1 .8.6-.4.7-.1.2.7-.5.9-.4 1.1.3.6.7-.4 1.2-.3 1.2.3 0 1.8-1.8 2.1-2.6.3-1.2-2.7-1.1-3.5.4-6 .8-1.2 1.2-2.5.8-2.9-.3-.3-.6-.1-.6.6s-.4.9-1 .6c-.6-.4-.7.1-.4 1.2.5 1.5.4 1.5-.5.3-.7-1.1-.6-1.9.6-3.2.9-1 1.3-2.1 1-2.5-.4-.3-.7-.2-.7.4 0 .5-.7 1-1.5 1-1.6 0-2-1.2-.7-2 .4-.2.1-.2-.5-.1-.7.2-1.3-.1-1.3-.7 0-.5-.6-.4-1.4.3-.8.7-1.1 1.7-.8 2.2.3.5 0 .6-.6.2-.9-.5-.9-1.3-.1-2.9l1.2-2.2-2.3 2-2.3 2 .8-2.5c.7-2.4.7-2.4-.8-.5-.8 1.1-1.3 2.4-1 3 .4.6.2.6-.3.2-.5-.5-.9-1.4-.9-2-.1-.7-.6-1.1-1.3-1-.7.2-1.1 0-1-.5.1-.4-.3-1.7-1-3-.7-1.2-1-2.2-.7-2.2.3 0-.2-1.1-1.1-2.5-.9-1.4-1.4-2.8-1-3.2.3-.3.6-.1.6.6s.4.9 1 .6c.6-.4.7.1.3 1.1-.5 1.3-.3 1.5.7.9.8-.5 1.1-.4.6.3-.3.6-.2 1.3.3 1.7.6.3.8 1.1.5 1.8-.2.7.4 1.3 1.6 1.4 1.1.1 2-.3 2-.8 0-.6-.5-.7-1.2-.3-.8.5-.9.2-.5-.9.4-1 .2-1.6-.5-1.4-.5.1-1.2-.7-1.4-1.8-.1-1.1-1-2.5-1.8-3.1-.9-.6-1.4-1.4-1.1-1.7.3-.4.2-.5-.2-.2-.3.3-1.2 0-1.9-.5-.8-.8-1.7-.6-2.8.5-1.2 1.2-1.6 1.3-1.6.3 0-.9-.2-1-.8-.2-.5.9-1 .8-1.9-.1-1-1-.9-1.4.3-1.9.8-.3 1.3-.2.9.3-.6 1.1 2.2.8 3.2-.4.4-.4.2-.5-.5-.1-.8.5-1.6-.1-2.1-1.6-.7-1.7-1-1.9-1-.6-.1 1-.7 1.7-1.3 1.5-2.1-.4-2.7-1.9-1.7-4.6l1-2.5-2.2 1.9c-1.2 1.1-1.9 1.4-1.5.7.4-.7.2-2.1-.5-3-1.1-1.4-1.1-1.5 0-.6 1.3 1.2 5.1.7 5.1-.7 0-.4-.5-1.1-1.2-1.5-.6-.4-.8-.3-.5.3.4.6-1.3.9-4.6.8-2.9-.1-5.1-.5-4.9-.8.1-.4.2-.9.2-1.2 0-.3.8-.2 1.8.3.9.5 2.8.6 4.2.1l2.5-.7-2.5-.2c-1.4-.1-2.9-.2-3.4-.1s-1.3-.4-1.7-1.1c-.7-1-.9-1-.9-.1 0 1.7-5.5 1.7-6.9 0-.6-.8-.7-1.8-.3-2.2.4-.5.2-.5-.5-.1-.6.3-1 2.1-.8 3.9.2 1.7.1 2.6-.2 1.9-.2-.6-.9-.9-1.5-.6-.6.4-.8-.2-.3-1.7.3-1.3.3-1.9-.2-1.3-1 1.4-4.3 1.4-4.3 0 0-.5-.6-.1-1.4.9-1.3 1.8-1.3 1.8-2.5-.1-1.1-1.8-1.2-1.7-.6.3.5 1.8.3 2.2-.9 1.7-.9-.3-1.3-1.1-.9-1.7.3-.5.1-.7-.5-.3-.6.3-1.2.1-1.5-.6-.2-.7-.3-.5-.2.4.5 2.7-.8 2.9-4.6.6l-3.4-2 2.5 2.8c1.4 1.6 1.8 2.3 1 1.6-.8-.6-1.8-1.2-2.3-1.2-.4 0-.5.6-.1 1.2.5.8 0 .7-1.1-.2-2-1.7-2.5-1.7-3.5 0-.5.8-.9.8-1.3-.3s.2-1.4 2.3-1.2c2.2.2 2.7-.1 2.2-1.3-.4-1.2-.7-1.3-1-.3-.3 1-1 .7-2.3-1-1.2-1.5-1.7-1.8-1.3-.6.5 1.3.2 1.6-1.2 1.1-1.6-.5-1.6-.4-.4.5 1.3.9 1.3 1.1-.2 1.1-.9 0-1.9-.6-2.1-1.3-.4-1-.6-1-.6 0-.1.7-.8 1.3-1.7 1.3-.8 0-1.3-.4-1-.8.3-.5-.1-.9-.9-.9s-1.2.3-1 .7c.3.4-.5 1.6-1.7 2.6-2.1 1.9-2.1 1.9-.8-.5.7-1.5.8-2.1.1-1.7-.6.4-1.1.3-1.1-.2s-1.3-.9-2.9-.8c-1.6 0-2.7.4-2.4.9.2.4.9.5 1.4.2.5-.4.9 0 .9.7 0 1 .2 1 .9-.1.5-.8 1.1-.9 1.5-.3.3.5-.1 1.3-1 1.6-.8.3-1.2 1.1-.8 1.7.4.8.3.9-.5.5-.6-.4-.9-1.2-.6-1.7.6-.8 0-1-4.4-1.3-.8-.1-1.8-1-2.2-2.1-.4-1.1-.8-1.4-.8-.7-.2 2.3 1.9 5.1 3.3 4.6.8-.3 1.6-.1 2 .4.7 1.2-3 .8-4.6-.6-1.1-.9-1.8-.9-2.8.1-1.2 1-1.2.9-.1-.6.9-1.1 1-1.7.2-1.8-2.1-.3-2.6-.4-4.1-1.4-1.3-.8-1.3-.7-.1.8.7.9 1.8 1.4 2.4 1 .6-.3.7-.1.3.5-.5.8-1.3.8-3.1 0-1.3-.6-2.2-1.5-1.8-2.1.3-.6.1-.7-.6-.3-.6.4-.9 1.1-.6 1.6.3.4-.6.7-1.9.6-1.3 0-2.2-.6-1.9-1.2.2-.7 0-1.5-.6-1.9-.7-.4-.8 0-.4 1.1.5 1.2.3 1.5-.6.9-1-.6-1.1-.3-.2 1.3.6 1.2 1.7 1.9 2.5 1.6.8-.3 1.6-.1 2 .4.7 1.2-2.9.8-4.6-.5-1.7-1.5-3-1.3-4.6.6-1.1 1.5-1.2 1.5-.6 0 .4-1.3-.1-1.6-2-1.4-1.4.2-3 .6-3.5 1-.6.3-1.1.2-1.1-.2 0-.5.9-1.4 2-2.1 1.1-.7 2-.8 2-.3s1.3.8 2.9.7c2 0 2.7-.5 2.3-1.4-.4-1-.7-1.1-1.2-.2-.6.9-.9.9-1.3-.1-.4-1.1-.6-1.1-.6.1-.1 1-.7.7-2.1-1-1.3-1.5-1.8-1.8-1.4-.7zM243 17.2c0-.7.5-1 1.1-.6.8.5.6 1-.5 1.6-.9.5-1.3 1.4-1 2 .4.7.2.8-.5.4-.6-.4-.9-1.2-.6-1.7.4-.5.1-.9-.5-.9s-.8-.5-.4-1.1c.4-.8.9-.7 1.5.2.7 1.1.9 1.1.9.1zm92.8 1.3c-.3.3-.9-.2-1.2-1.2-.6-1.4-.5-1.5.5-.6.7.7 1 1.5.7 1.8zm-96.8-.8c0 1.3-2.9 3.2-3.5 2.3-.3-.5-.1-1 .5-1s.9-.4.6-.8c-.3-.5.1-.9.9-.9s1.5.2 1.5.4zm14 .8c-.7.9-1.5 1.3-1.9 1-.3-.3.1-1 .9-1.5 2.1-1.4 2.4-1.2 1 .5zm48 0c-.7.9-1.5 1.3-1.9 1-.3-.3.1-1 .9-1.5 2.1-1.4 2.4-1.2 1 .5zm27.5-.7c-.3.3.3 1.1 1.3 1.9 1.5 1.3 1.4 1.3-.7.3-1.9-1-2.5-.9-3.2.1-1 1.6-1.2.8-.4-1.4.3-.7 1.2-1.4 2-1.4s1.3.3 1 .5zm-23.5.6c0 .3-.4.8-1 1.1-.5.3-1 .1-1-.4 0-.6.5-1.1 1-1.1.6 0 1 .2 1 .4zm35.4 1.2c.3.8.2 1.2-.4.9-.6-.3-1-1-1-1.6 0-1.4.7-1.1 1.4.7zm-117.6 1.7c-.2 2.7-2.4 3.2-2.4.6 0-1 .4-1.5.8-1.3.4.3.8 0 .8-.5 0-.6.2-1.1.5-1.1s.4 1 .3 2.3zm98.2-1.4c0 .6-.4 1.2-.8 1.5-.5.3-.9-.1-.9-.9s.4-1.5.9-1.5c.4 0 .8.4.8.9zm-72.7 1.6c-.3.9-.8 1.4-1 1.1-.3-.3-.2-.9.2-1.5.9-1.6 1.5-1.3.8.4zm48 0c-.3.9-.8 1.4-1 1.1-.3-.3-.2-.9.2-1.5.9-1.6 1.5-1.3.8.4zm-21.6 1c0 .8-.4 1.2-.9.9-.5-.3-.6-1-.3-1.5.9-1.3 1.2-1.1 1.2.6zm71.6 1c-.7 2.1-1.2 1.9-1-.4 0-1.1.5-1.8.9-1.5.4.3.5 1.1.1 1.9zM223 25.4c0 .3-.4.8-1 1.1-.5.3-1 .1-1-.4 0-.6.5-1.1 1-1.1.6 0 1 .2 1 .4zm125.7 2.1c0 .8-.4 1.2-.9.9-.5-.3-.6-1-.3-1.5.9-1.3 1.2-1.1 1.2.6zm-174.1 7.9c.1 1-.1 1.5-.4 1.1-.4-.4-.7-1.1-.7-1.5 0-.5-.9-1.7-2-2.6-1.9-1.5-1.9-1.6.4-.2 1.3.8 2.5 2.2 2.7 3.2zm38-1.8c-.4.9-.9 1.5-1.1 1.2-.3-.3-.3-1.3.1-2.2.4-.9.9-1.5 1.1-1.2.3.3.3 1.3-.1 2.2zm147.6-.8c-.7.2-.9.9-.6 1.4.4.7.2.8-.4.4-.6-.4-.9-1.3-.6-2.1.4-.8 1.1-1.2 1.7-.8.8.5.7.8-.1 1.1zm-2.2 2.6c0 .2-.8 1-1.7 1.7-1.6 1.3-1.7 1.2-.4-.4 1.3-1.6 2.1-2.1 2.1-1.3zM160 42c-1.4.9-1.3 1.1.9 1.4 2.1.3 1.9 1.2-.3 1.2-1.3 0-2.3-.5-2.2-1.1.3-1.8 1.8-3.7 2.4-3 .4.3 0 1-.8 1.5zm-9.7 6.3c.8-.4.7-.1-.1.9-.7.8-.9 2.4-.6 3.4.4 1.1.4 1.6-.1 1.2-.4-.4-.9-2.2-1.1-4-.1-1.8 0-2.7.3-2 .2.6 1 .9 1.6.5zm226.7 2c0 .5-.4.5-1 .2-.5-.3-1-1.4-1-2.3 0-1.5.2-1.5 1-.2.5.8 1 1.9 1 2.3zm-223.9-.4c-.8.5-1 1.4-.6 2.2.6 1.1.5 1.1-.5.2-1.4-1.2-.6-3.3 1.3-3.3.8 0 .7.3-.2.9zm219 .8c1.3 1.6 1.2 1.7-.3.4-1.7-1.3-2.2-2.1-1.4-2.1.2 0 1 .8 1.7 1.7zM379 66c0 .5-.5 1-1.1 1-.5 0-.7-.5-.4-1 .3-.6.8-1 1.1-1 .2 0 .4.4.4 1zm-2.3 3.5c0 .8-.4 1.2-.9.9-.5-.3-.6-1-.3-1.5.9-1.3 1.2-1.1 1.2.6zm-4.7 2.1c0 .8-1.9 1.3-2.4.6-.3-.5.1-.9.9-.9s1.5.2 1.5.3zm4.4 1.3c1.3 1.4 1.4 2.1.5 2.7-.8.4-1 .3-.5-.5.4-.6 0-1.4-.8-1.7-.9-.3-1.6-1-1.6-1.5 0-1.3.5-1.1 2.4 1zM147.5 87c-.3 1.8.6 2.5 2.8 2.1.5-.1.6.3.2.9-1 1.6-4.4-.7-4-2.7.5-2.4.4-2.3.9-2.3.3 0 .3.9.1 2zm203 2.9c.3.5.2 1.2-.3 1.5-.5.3-.9-.1-.9-.9 0-1.7.3-1.9 1.2-.6zm.5 4.6c1.1 1.3 1 1.4-.4.9-.9-.3-1.6-1-1.6-1.5 0-1.3.6-1.1 2 .6zm-3.4 24.1c.1.9 0 1.3-.4 1-.3-.4-.7-1.4-.8-2.2-.1-.9 0-1.3.4-1 .3.4.7 1.4.8 2.2zm-200.1.4c-.3 1.8.6 2.5 2.8 2.1.5-.1.6.3.2.9-1 1.6-4.4-.7-4-2.7.5-2.4.4-2.3.9-2.3.3 0 .3.9.1 2zm197.5-1.1c0 1.3-1.2 2-2.6 1.4-2-.8-1.7-1.9.6-2 1.1-.1 2 .2 2 .6zm-195 9.5c0 .3-.4.8-1 1.1-.5.3-1 .1-1-.4 0-.6.5-1.1 1-1.1.6 0 1 .2 1 .4zm186.1 3.3c-.7 1.3-.5 2.3.6 3.6 1.2 1.3 1.4 2 .6 2.8-.6.6-.9 1.8-.6 2.5.4 1-.1 1.3-1.6 1.1-1.1-.2-2.3-.6-2.6-1-.3-.4-.2-.5.2-.2.8.6 3.3-1.4 3.3-2.7 0-.5-.4-.6-1-.3-.5.3-1 .1-1-.4 0-.6.5-1.1 1.1-1.1.5 0 .7-.5.4-1-.4-.6-1-.8-1.4-.6-.4.3-.8-.1-.8-.9s.4-1.2.8-1c.4.3.9-.2 1.3-1 .3-.8.8-1.5 1.1-1.5.3 0 .2.8-.4 1.7zm-1.4 18.5c-.3.7-.5.2-.5-1.2s.2-1.9.5-1.3c.2.7.2 1.9 0 2.5zm-186.2.6c-.3.3-1.1 0-1.8-.7-.9-1-.8-1.1.6-.5 1 .3 1.5.9 1.2 1.2zm228.5-.7c0 .4-.7 1-1.6 1.3-.8.3-1.2 1-.9 1.6.3.5.1 1-.5 1-.7 0-1-.7-.6-1.5.3-.8.1-1.5-.5-1.5s-.8-.4-.4-.9c.6-1.1 4.5-1.1 4.5 0zm11.6 1.6c-1 1-1.9-.5-1-1.8.6-1.1.8-1.1 1.2 0 .2.7.1 1.5-.2 1.8zm20.5.6c-.6.8-.9 1.7-.6 2.1.3.3 0 .2-.6-.3-1.2-1-.4-3.1 1.3-3.1.7 0 .7.4-.1 1.3zm-258.1.3c0 .8-1.9 1.3-2.4.6-.3-.5.1-.9.9-.9s1.5.2 1.5.3zm218 .4c0 .5-.4 1-1 1-.5 0-1-.5-1-1 0-.6.5-1 1-1 .6 0 1 .4 1 1zm10 0c0 .5-.2 1-.4 1-.3 0-.8-.5-1.1-1-.3-.6-.1-1 .4-1 .6 0 1.1.4 1.1 1zm13.5 0c.3.6-.1.7-.9.4-1.8-.7-2.1-1.4-.7-1.4.6 0 1.3.4 1.6 1zm-22.2 2.5c-.3.9-.8 1.4-1 1.1-.3-.3-.2-.9.2-1.5.9-1.6 1.5-1.3.8.4zm-1.9 2.1c.3.8.2 1.2-.4.9-.6-.3-1-1-1-1.6 0-1.4.7-1.1 1.4.7zm-215.4-.2c0 .2-.8 1-1.7 1.7-1.6 1.3-1.7 1.2-.4-.4 1.3-1.6 2.1-2.1 2.1-1.3zm3.4 7c-.3 1.2-.2 1.5.2.8.3-.6 1-1.2 1.6-1.2.6 0 .6.6-.2 1.5-1.4 1.7-2.6 1.3-3.2-1.3-.3-1.1 0-1.9.7-1.9s1.1.9.9 2.1zm208.5 1.2c-1.4 1.3-1.6 1.3-1.6 0 0-.8.4-1.3.9-1 .4.3.8 0 .8-.7s.3-.9.7-.5c.4.3 0 1.3-.8 2.2zm-5.9-.5c0-.8.2-1.2.5-.9.3.3.2 1.3-.1 2.2-.5 1.4-.9 1.5-1.5.4-.5-.7-.9-1.8-.9-2.3 0-.6.5-.3 1 .5.8 1.2 1 1.2 1 .1zm-194.7 7.1c-.4.7-.8 1.6-.8 2 0 .3-.3.9-.7 1.2-.5.3-.6.3-.3-.1.3-.3-.1-1.3-.8-2.1-.8-1.1-.8-1.4 0-.9.6.4 1.4.3 1.8-.3.3-.5.8-1 1.1-1 .3 0 .2.6-.3 1.2zm170.2 1.7c.3.5.2 1.2-.3 1.5-.5.3-.9-.1-.9-.9 0-1.7.3-1.9 1.2-.6zm-162.2 2.6c-.3.9-.8 1.4-1 1.1-.3-.3-.2-.9.2-1.5.9-1.6 1.5-1.3.8.4zm-3.3-.1c0 .2-.7.7-1.6 1-.8.3-1.2.2-.9-.4.6-1 2.5-1.4 2.5-.6zm9 10c0 .2-.7.7-1.6 1-.8.3-1.2.2-.9-.4.6-1 2.5-1.4 2.5-.6zm-.5 2.6c-.3.5-.2 1 .2 1 .5 0 .9 1.1.9 2.4 0 2.2-.3 2.3-3.5 1.7-.2-.1.2-.7.8-1.5.6-.8 1.1-1.8 1-2.2-.2-1.4 0-2.4.7-2.4.3 0 .2.4-.1 1zm229.5 0c0 .5-.5 1-1.1 1-.5 0-.7-.5-.4-1 .3-.6.8-1 1.1-1 .2 0 .4.4.4 1zm-1.5 4c.3.6-.1.7-.9.4-1.8-.7-2.1-1.4-.7-1.4.6 0 1.3.4 1.6 1zm-11.4 3.7c-1.2 2-1.4 1.4-.5-1.2.4-.9.9-1.4 1.1-1.1.3.2 0 1.3-.6 2.3zm-217.3 4.7c0 1.8-.5 2.3-1.6 1.9-1.1-.5-1.3-.3-.6.8 1.2 2 1.4 4 .3 3.3-.5-.3-.7-.9-.4-1.4.3-.5.1-1.1-.5-1.5-.6-.4-.3-1.5.7-3 1-1.4 1.9-2.5 1.9-2.5.1 0 .2 1.1.2 2.4zm213.9.1c0 .8-.4 1.2-.9.9-.5-.3-.6-1-.3-1.5.9-1.3 1.2-1.1 1.2.6zM179 204c0 .5-.5 1-1.1 1-.5 0-.7-.5-.4-1 .3-.6.8-1 1.1-1 .2 0 .4.4.4 1zm211.6 2.5c1 .8 1.5 1.4.9 1.4-.5 0-1.9-.6-2.9-1.4-1.1-.8-1.5-1.5-1-1.5.6 0 1.9.7 3 1.5zm-6 1.7c.5-.4-.1.5-1.4 1.9-1.2 1.4-2 2.7-1.8 3 .2.2-.8.5-2.2.5-1.5.1-2.1-.1-1.4-.3.6-.3 1-.9.7-1.4-.4-.5.2-.6 1.1-.2 1.1.4 1.5.3 1-.5-.3-.6-.2-1.3.4-1.7.6-.4.7-1.2.3-1.8-.5-.8-.2-.8.9 0 .8.7 1.9.9 2.4.5zm-4.4 10.6c-.8.2-.9.9-.2 2.2.7 1.3.7 2.1 0 2.5-.6.4-1 .3-.9-.2.4-2.1-.2-3.4-1.2-2.8-.6.4-.5-.2.2-1.3.7-1.2 1.8-1.8 2.3-1.5.6.4.6.8-.2 1.1zm-231.6 10.7c-.1 2.2-.2 2.3-1.3.9-1.2-1.7-.9-3.4.7-3.4.4 0 .7 1.1.6 2.5zm228 2.7c.5.7.3.8-.6.3-.8-.5-1.1-.3-.8.6.3.8 1.2 1.2 1.9 1.1.8-.2 1 0 .6.4-1.6 1.7-3.4 1.1-3.2-1 .4-3.1.9-3.5 2.1-1.4zm-9.3 3.2c.8-.3 1.7-.1 2 .3.9 1.5-4.1.9-5.5-.7-1.1-1.2-1.1-1.2.3-.2.9.7 2.3 1 3.2.6zm5.4-.8c-.3.3-1.2.4-1.9.1-.8-.3-.5-.6.6-.6 1.1-.1 1.7.2 1.3.5zm-233.1 2.9c-.3 2.4-1.2 2.7-2.7.8-.8-.9-.9-1.4-.2-1 .6.4 1.4.3 1.8-.3.9-1.4 1.4-1.2 1.1.5zm2.9.5c.3.5.1 1-.4 1-.6 0-1.1-.5-1.1-1 0-.6.2-1 .4-1 .3 0 .8.4 1.1 1zm222.3 5.8c-.6.7-1.3 1-1.7.7-.3-.3.1-1 .8-1.4.9-.6 1-1.1.2-1.5-.6-.4-1.1-1.2-1.1-1.9 0-.6.6-.2 1.4.9 1 1.3 1.1 2.3.4 3.2zm-228.1-1.3c0 .8-.4 1.2-.9.9-.4-.3-.8-.9-.8-1.5 0-.5.4-.9.8-.9.5 0 .9.7.9 1.5zm-6.4 5.8c-.4.7-.8 1.5-.9 1.9-.1.5-.2 1.1-.3 1.4 0 .3-.6.2-1.2-.1-.7-.5-.5-1.3.5-2.4.9-1 1.3-2.1.9-2.6-.5-.4-.2-.5.5-.1s.9 1.3.5 1.9zm2.7 1.1c0 .3-.4.8-1 1.1-.5.3-1 .1-1-.4 0-.6.5-1.1 1-1.1.6 0 1 .2 1 .4zm234.5 1.5c.3.5.2 1.2-.3 1.5-.5.3-.9-.1-.9-.9 0-1.7.3-1.9 1.2-.6zm7.5 4.9c0 .5-.7.9-1.5.9s-1.2-.4-.9-.9c.3-.4.9-.8 1.5-.8.5 0 .9.4.9.8zM122.5 258c.4.6-.1.7-1.1.3-1.4-.5-1.6-.3-1 1.3.5 1.4.4 1.6-.5.7-1.2-1.2-.5-3.3 1.1-3.3.5 0 1.2.4 1.5 1zm255.8 2.5c.4.8.3 1.6-.1 1.9-.4.3-.9-.4-.9-1.5-.2-2.3.3-2.5 1-.4zM121 265.4c0 .3-.4.8-1 1.1-.5.3-1 .1-1-.4 0-.6.5-1.1 1-1.1.6 0 1 .2 1 .4zm259.7.2c-.3.3-1.2.4-1.9.1-.8-.3-.5-.6.6-.6 1.1-.1 1.7.2 1.3.5zM121 269.4c0 .3-.4.8-1 1.1-.5.3-1 .1-1-.4 0-.6.5-1.1 1-1.1.6 0 1 .2 1 .4zm-2.3 6.3c-.4.3-.1 1.3.6 2.2 1.1 1.4 1 1.4-.5.2-2.1-1.5-2.3-3.1-.6-3.1.6 0 .8.3.5.7zm-3.1 1.2c-.4.5 0 1.1.6 1.4 1 .3 1 .8-.1 1.8-1 1.1-1.5 1.1-1.8.1-.3-.6-.9-1-1.3-.7-.5.3-.7 1.2-.3 2 .3.8 0 1.5-.6 1.5s-1-.3-.8-.8c.2-.7-.6-1.2-2.4-1.2-.5 0-.8.4-.5.8.2.4-.6.8-2 .8-4.1 0-.5-2.4 4.3-2.8.7-.1 2-1 3-2 1.7-1.9 2.8-2.4 1.9-.9zm265.4 2.7c0 .8-.4 1.4-.8 1.4s-.8-.9-.8-1.9c0-1.1.4-1.7.8-1.5.4.3.8 1.2.8 2zm12.9 6c-.6.8-1.7 1.4-2.3 1.3-.7 0-.6-.2.2-.6.6-.2 1.2-1.1 1.2-1.9 0-.9.5-1.2 1-.9.8.5.7 1.1-.1 2.1zm-288.4.2c-.3.3-1.1 0-1.8-.7-.9-1-.8-1.1.6-.5 1 .3 1.5.9 1.2 1.2zm289.3 8.8c.4-.2.7 2.2.8 5.5 0 4.8-.2 5.6-1.3 4.7-.8-.6-1-1.4-.6-1.7 1.5-1.1.8-3.4-1.2-4.2-1.6-.6-1.7-.8-.3-.8 1.2-.1 1.6-.8 1.3-2.9-.2-1.5-.2-2.1.1-1.4.3.6.9 1 1.2.8zm-3.2 13.2c-1.7 1.6-1.8 1.6-.5-.5.7-1.2 1.5-2 1.8-1.7.3.2-.3 1.2-1.3 2.2zm2.2 8.2c-.7 1-1.4 1.7-1.7 1.5-.4-.4 1.8-3.5 2.5-3.5.2 0-.1.9-.8 2zM104 317c-.7.5-.9 1.3-.5 2 .5.8.4 1.1-.3.6-1.6-1-1.1-4.5.6-3.9 1 .5 1.1.8.2 1.3zm291.5 3c-.3.5-1 1-1.6 1-.5 0-.9-.5-.9-1 0-.6.7-1 1.6-1 .8 0 1.2.4.9 1zM104 344c0 .5-.5 1-1.1 1-.5 0-.7-.5-.4-1 .3-.6.8-1 1.1-1 .2 0 .4.4.4 1zm290.6 6.2c.4.7.3.8-.4.4s-1.2 0-1.2 1-.3 1.5-.6 1.1c-.7-.6.2-3.7 1-3.7.3 0 .8.5 1.2 1.2zm-.1 6.8c.1 1-.2 1.7-.6 1.4-.4-.2-.7-1.3-.6-2.4.2-2.3 1-1.7 1.2 1zm0 13.9c-.3.5-.1 1.2.5 1.6 1.2.7.4 2.5-1.1 2.5-.5 0-.7-1-.5-2.3.6-2.9.5-2.7 1.2-2.7.3 0 .3.4-.1.9zm-7.7 7.6c-.3.3-.9-.2-1.2-1.2-.6-1.4-.5-1.5.5-.6.7.7 1 1.5.7 1.8zm7.1 1.1c-1.4 1.3-1.7 1.3-3-.2-.8-1-.9-1.5-.3-1.1.7.4 1.5-.1 1.8-1 .5-1.2.9-1.4 1.8-.5.9.9.9 1.6-.3 2.8zm-15.5 13.3c1.3 1.4 1.4 2.1.5 2.7-.8.4-1 .3-.5-.4.4-.7.3-1.2-.2-1.2-.6 0-1.2-.7-1.6-1.5-.7-2-.3-1.9 1.8.4zm-6.4.7c0 .8-1.9 1.3-2.4.6-.3-.5.1-.9.9-.9s1.5.2 1.5.3zm4.4 1c.3.8.2 1.2-.4.9-.6-.3-1-1-1-1.6 0-1.4.7-1.1 1.4.7zm-254.3 2.1c1.3 1.6 1.2 1.7-.3.4-1-.7-1.8-1.5-1.8-1.7 0-.8.8-.3 2.1 1.3zm39.3 3.8c-.4.8-1.1 1.2-1.6.9-.6-.4-.5-1 .3-1.5 1.9-1.2 1.9-1.1 1.3.6zm31.6 1c0 .2-1 .9-2.2 1.5-2.2 1.1-2.2 1-.4-.4 2.1-1.7 2.6-1.9 2.6-1.1zm172 .5c0 .5-.5 1-1.1 1-.5 0-.7-.5-.4-1 .3-.6.8-1 1.1-1 .2 0 .4.4.4 1zm-206 1.4c0 .3-.4.8-1 1.1-.5.3-1 .1-1-.4 0-.6.5-1.1 1-1.1.6 0 1 .2 1 .4zm1.4 2.4c-.6.4-1 1.5-.9 2.4.2 1.1-.2 1.5-1.3 1.1-1-.4-1.3-.2-.8.5.5.8.2 1-1 .5-1.4-.5-1.3-.8.7-1.9 1.3-.7 2-1.3 1.6-1.4-1.3 0 .3-2 1.6-2 .9 0 .9.2.1.8zm196.2 5.4c0 1-.3 1.8-.7 1.8-.4 0-.9-.8-1.1-1.8-.3-1 0-1.9.6-1.9.7 0 1.2.9 1.2 1.9zm-10.6.8c-1.1 2-3 1.9-3-.1 0-.6.4-.8.9-.4.5.3 1.2.1 1.6-.5 1.2-1.9 1.6-1 .5 1zm7.1-.6c.7-.4 1-.2.7.6-.5 1.5-3.3 2.1-5.4 1.3-1.1-.4-1.2-.9-.3-1.9.9-1.1 1.5-1.1 2.5-.3.7.6 1.8.7 2.5.3zm-16.7.4c.3.5-.1.9-.9.9s-1.2-.4-.9-.9c.3-.4.7-.8.9-.8.2 0 .6.4.9.8zM335 420c0 .5-.2 1-.4 1-.3 0-.8-.5-1.1-1-.3-.6-.1-1 .4-1 .6 0 1.1.4 1.1 1zm-152.3 9.2c-.3.8-.6.5-.6-.6-.1-1.1.2-1.7.5-1.3.3.3.4 1.2.1 1.9zm149.9 2.3c-.1.8-.5 1.7-.8 2.1-.5.4-.4-1.6.1-3.4.3-.9.9.1.7 1.3zm4 1.2c.4 2.6-2 5-3.2 3.2-.4-.8-.3-.9.4-.5s1.3.2 1.3-.3c.1-.6.2-1.7.3-2.4.1-.6-.3-1.6-.9-2-.6-.5-.5-.7.4-.5.8.2 1.6 1.3 1.7 2.5zM182 431.4c0 .2-.7.7-1.6 1-.8.3-1.2.2-.9-.4.6-1 2.5-1.4 2.5-.6zm146.5 6.6c.3.5.1 1-.4 1-.6 0-1.1-.5-1.1-1 0-.6.2-1 .4-1 .3 0 .8.4 1.1 1zm-150.3 2.5c.3 1.3.1 2.2-.3 1.9-.9-.5-1.3-4.4-.5-4.4.2 0 .6 1.1.8 2.5zm140.5 19.7c.2 1.7 0 1.9-.7.8-.5-.8-.6-1.8-.4-2.2.8-1.2 1-1 1.1 1.4zM177 464.4c0 .8-.4 1.7-.8 2-.4.2-.8-.4-.8-1.5 0-1 .4-1.9.8-1.9s.8.6.8 1.4zm147 1.1c0 .1-.9 1-1.9 1.9-1.4 1.3-2.1 1.4-2.7.5-.4-.8-.3-1 .4-.5.7.4 1.2.2 1.2-.3 0-.6-.6-1.1-1.2-1.1-.9 0-.9-.3.1-.9 1.2-.8 4.1-.5 4.1.4zm-62.5 4.4c.3.5 0 1.3-.6 1.7-.7.4-.9.3-.5-.4.3-.5 0-1.3-.6-1.5-.9-.4-1-.6-.1-.6.6-.1 1.4.3 1.8.8zm57.2 2.6c0 .8-.4 1.2-.9.9-.5-.3-.6-1-.3-1.5.9-1.3 1.2-1.1 1.2.6zm-138.2 12.3c-.3.3-1.1 0-1.8-.7-.9-1-.8-1.1.6-.5 1 .3 1.5.9 1.2 1.2zm54.1 5.8c.2 2.3.1 2.4-1.1.7-1-1.3-1-2-.2-2.5.7-.4 1.2-.8 1.2-.8s.1 1.1.1 2.6zm30.8 1.7c-.2 1-.8 2.5-1.4 3.2-.8 1-.7 1.6.7 2.4 1.6.9 1.4 1.1-1.4 1.1-1.1 0-1.1-2.2-.1-3.6.4-.6.6-2 .4-3.1-.3-1.2.1-2 .9-2s1.2.8.9 2zm53.3-.8c0 .8-.4 1.2-.9.9-.5-.3-.6-1-.3-1.5.9-1.3 1.2-1.1 1.2.6zm-87.2 4.5c1 1.1 1.6 2 1.3 2-.3 0-1.3-.9-2.3-2-1-1.1-1.6-2-1.3-2 .3 0 1.3.9 2.3 2zm-51.4 4.7c1.3 1.6 1.2 1.7-.3.4-1-.7-1.8-1.5-1.8-1.7 0-.8.8-.3 2.1 1.3zm-2 1c1.3 1.7 1.3 1.7-.6.3-1.1-.8-2.2-1.6-2.4-1.7-.2-.2 0-.3.6-.3s1.7.8 2.4 1.7zm87-.3c-1.4 1.7.2 3.1 2.2 2 .9-.5.9-.4 0 .6-1.8 1.9-4.9-.6-3.2-2.6.6-.8 1.4-1.4 1.6-1.4.3 0 0 .6-.6 1.4zm-30.7 1.2c1.6.6 1.2 2.4-.5 2.4-.6 0-.7-.5-.3-1.2.5-.8.2-.9-1-.5-1 .4-1.5.3-1.1-.3.7-1.2.8-1.2 2.9-.4zm-57 4c.3.8.2 1.2-.3.9-.5-.3-1.2-.1-1.6.5-.3.5-.1 1 .4 1 .6 0 1.1.5 1.1 1.1 0 .8-.5.8-1.5-.1-1.1-.9-1.2-1.6-.5-2.5.5-.6.7-1.5.3-1.8-.3-.4-.2-.7.4-.7.6 0 1.4.7 1.7 1.6zm57.5 3c-1.4 1.7-2.2 1.8-1.6.1.2-.6-.3-2.1-1.2-3.1-1.6-1.9-1.5-1.9 1.2-.1 2.1 1.4 2.5 2 1.6 3.1zm99.1-4.2c0 .2-.7.7-1.6 1-.8.3-1.2.2-.9-.4.6-1 2.5-1.4 2.5-.6zm3 1c0 .3-.4.8-1 1.1-.5.3-1 .1-1-.4 0-.6.5-1.1 1-1.1.6 0 1 .2 1 .4z"/><path d="M392.6 378.7c-.6 1.4-.5 1.5.5.6.7-.7 1-1.5.7-1.8-.3-.3-.9.2-1.2 1.2zM316 16c.6 1.1 1.3 2 1.6 2 .2 0 0-.9-.6-2s-1.3-2-1.6-2c-.2 0 0 .9.6 2zM324.1 15.6c0 1.1.3 1.4.6.6.3-.7.2-1.6-.1-1.9-.3-.4-.6.2-.5 1.3zM232.1 16.6c.6.7 1.6 1.1 2.1.8 1.1-.7.3-1.7-1.8-2-1.2-.2-1.3.1-.3 1.2zM353.5 24c.3.5.8 1 1.1 1 .2 0 .4-.5.4-1 0-.6-.5-1-1.1-1-.5 0-.7.4-.4 1zM215.6 25.7c-.6 1.4-.5 1.5.5.6.7-.7 1-1.5.7-1.8-.3-.3-.9.2-1.2 1.2zM351.5 26c-.3.5-.1 1 .4 1 .6 0 1.1-.5 1.1-1 0-.6-.2-1-.4-1-.3 0-.8.4-1.1 1zM179.9 26.7c-.1.5-.2 1.5-.3 2.3-.1 1-1.1 1.5-2.9 1.4-3.5-.2-2 1.8 1.6 2.2 2.2.2 2.5-.1 2.4-3.2-.1-3.1-.5-4.5-.8-2.7zM171.5 27.9c-.3.5-.2 1.2.3 1.5.5.3.9-.1.9-.9 0-1.7-.3-1.9-1.2-.6zM194.7 30.7c.3.7.6 1.3.8 1.3.1 0 .7-.6 1.3-1.3.8-1 .6-1.3-.7-1.3-1.1 0-1.7.6-1.4 1.3zM182.7 31.5c.3.8.9 1.2 1.4.9 1.2-.7 1.1-1.1-.5-1.7-1-.4-1.3-.1-.9.8zM207 31.5c0 .9.5 1.5 1.1 1.3.6-.2 1.1-.8 1.1-1.3s-.5-1.1-1.1-1.3c-.6-.2-1.1.4-1.1 1.3zM156 40c-.9.6-1 1-.3 1 .6 0 1.5-.5 1.8-1 .8-1.2.4-1.2-1.5 0zM371.6 42.2c.3.5 1 .6 1.5.3 1.3-.9 1.1-1.2-.6-1.2-.8 0-1.2.4-.9.9zM366 42.4c0 .2.7.9 1.5 1.6.9.7 1.5.8 1.5.2 0-.5-.7-1.2-1.5-1.6-.8-.3-1.5-.4-1.5-.2zM152.5 44.9c-.3.5-.2 1.2.3 1.5.5.3.9-.1.9-.9 0-1.7-.3-1.9-1.2-.6zM144 50.5c-.7.9-.8 1.5-.2 1.5.5 0 1.2-.7 1.6-1.5.3-.8.4-1.5.2-1.5s-.9.7-1.6 1.5zM145.4 53.8c.3.6-.2 1.2-1.1 1.4-1.6.3-1.7.4-.1 1 1.9.8 3.3-1.7 1.6-2.8-.6-.4-.8-.3-.4.4zM141.6 68.7c-.6 1.4-.5 1.5.5.6.7-.7 1-1.5.7-1.8-.3-.3-.9.2-1.2 1.2zM381 67.7c0 .5.5 1.5 1 2.3.7 1.2.9 1 .7-.8-.1-1.9-1.7-3.3-1.7-1.5zM144.3 72.9c-1 1.6-.9 1.9.4 1.7.9-.2 1.7-1 1.9-1.9.3-2.3-.8-2.1-2.3.2zM375 80.1c0 .5.5.7 1 .4.6-.3 1-.8 1-1.1 0-.2-.4-.4-1-.4-.5 0-1 .5-1 1.1zM365.6 82.8c-.3.4.4.9 1.5.9 2.3.2 2.5-.3.4-1-.8-.4-1.6-.3-1.9.1zM360.5 88c.3.5.8 1 1.1 1 .2 0 .4-.5.4-1 0-.6-.5-1-1.1-1-.5 0-.7.4-.4 1zM363 88c0 .5.5 1 1 1 .6 0 1-.5 1-1 0-.6-.4-1-1-1-.5 0-1 .4-1 1zM351.6 107.7c-.6 1.4-.5 1.5.5.6.7-.7 1-1.5.7-1.8-.3-.3-.9.2-1.2 1.2zM352.6 114.2c.3.5 1 .6 1.5.3 1.3-.9 1.1-1.2-.6-1.2-.8 0-1.2.4-.9.9zM338.3 123.2c-.2 1.6 0 1.7 1.3.3.9-.8 2.1-1.2 2.7-.8.7.3.9.2.4-.2-1.4-1.6-4.3-1.2-4.4.7zM143.6 136.7c-.6 1.4-.5 1.5.5.6.7-.7 1-1.5.7-1.8-.3-.3-.9.2-1.2 1.2zM339 145.5c0 .5.5 1.7 1 2.5s1 1 1 .5c0-.6-.5-1.7-1-2.5s-1-1.1-1-.5zM401.8 147.8c-.3 1.1 0 1.9.7 1.9s1-.8.7-1.9c-.2-1-.6-1.8-.7-1.8-.1 0-.5.8-.7 1.8zM336 151.9c0 1 1.9 2.5 2.5 2 .1-.2-.3-1-1.1-1.7s-1.4-.8-1.4-.3zM363.5 154c-.3.5-.1 1 .4 1 .6 0 1.1-.5 1.1-1 0-.6-.2-1-.4-1-.3 0-.8.4-1.1 1zM144.5 155c-1.6.7-1.7.9-.3.9 1.1.1 1.6.8 1.3 1.9-.2 1.1.3 1.9 1 1.9 1.1 0 1.3-1.6.5-3.7-.1-.3-.2-.8-.1-1.3.1-.8.2-.8-2.4.3zM409 159.9c0 .6.4 1.2.8 1.5.5.3.9-.1.9-.9s-.4-1.5-.9-1.5c-.4 0-.8.4-.8.9zM146 162c0 .5.7.7 1.5.4.8-.4 1.5-.8 1.5-1 0-.2-.7-.4-1.5-.4s-1.5.4-1.5 1zM353.3 162.7c.4.6 0 1.9-.9 2.7-1.6 1.6-.8 2.2 1.1.8 1.3-.9 1.3-2.7.1-3.9-.5-.4-.6-.3-.3.4zM337 164c0 .5.5 1 1.1 1 .5 0 .7-.5.4-1-.3-.6-.8-1-1.1-1-.2 0-.4.4-.4 1zM335.8 166.7c.7.3 1.6.2 1.9-.1.4-.3-.2-.6-1.3-.5-1.1 0-1.4.3-.6.6zM349 169.9c0 .6.5 1.1 1.1 1.1.5 0 .7.4.4 1-.3.6.1.7 1 .4.9-.4 1.5-.7 1.3-.8-.2-.1-1.1-.8-2-1.5-1.2-.9-1.8-1-1.8-.2zM168.1 179.4c-1 1.2-.9 1.4.6 1.1 1-.1 2.8.4 4.1 1.2 2.2 1.3 2.2 1.3 1-.6-.7-1.1-1.4-1.8-1.7-1.6-.2.3-1 0-1.6-.5-.9-.7-1.6-.6-2.4.4zM171.6 183.3c.3 1 .9 1.5 1.2 1.2.3-.3 0-1.1-.7-1.8-1-.9-1.1-.8-.5.6zM409.5 184c-.3.6.1.7.9.4 1.8-.7 2.1-1.4.7-1.4-.6 0-1.3.4-1.6 1zM399.5 194.1c-1.2.6-2.7 1.9-3.4 3.1-.9 1.4-.9 1.8-.1 1.3.9-.5 1-.1.5 1.6-.4 1.3-.4 2.1 0 1.6.5-.4.9-1.7 1-3 .1-1.5.8-2.2 2.1-2.1 1.3.1 2-.5 2-1.7 0-1.1 0-1.9-.1-1.8 0 0-.9.5-2 1zM403 194.9c0 .6.4 1.3 1 1.6.6.3.7-.1.4-.9-.7-1.8-1.4-2.1-1.4-.7zM166.6 206.2c.3.5 1 .6 1.5.3 1.3-.9 1.1-1.2-.6-1.2-.8 0-1.2.4-.9.9zM387 212.1c0 .5.5.7 1 .4.6-.3 1-.8 1-1.1 0-.2-.4-.4-1-.4-.5 0-1 .5-1 1.1zM135.8 234.7c.7.3 1.6.2 1.9-.1.4-.3-.2-.6-1.3-.5-1.1 0-1.4.3-.6.6zM369.3 240.5c0 .8.4 1.2.9.9.4-.3.8-.9.8-1.5 0-.5-.4-.9-.8-.9-.5 0-.9.7-.9 1.5zM367.7 244.2c-.7 2-.7 2.8 0 3 .3.2.8-.7.9-2 .4-2.4-.1-3-.9-1zM125.5 246c-.3.5-.1 1 .4 1 .6 0 1.1-.5 1.1-1 0-.6-.2-1-.4-1-.3 0-.8.4-1.1 1zM121.7 249.1c.7.9 1.1 1.8.8 2-.2.3.4.5 1.4.5 1.2 0 1.7-.5 1.4-1.4-.3-.7-.8-1-1.1-.8-.3.3-1.2 0-2.1-.7-1.4-1-1.4-1-.4.4zM375 250c-.9.6-1 1-.3 1 .6 0 1.5-.5 1.8-1 .8-1.2.4-1.2-1.5 0zM379.4 250.9c.4.6.3 1.7-.3 2.4-1.3 1.6.3 4.2 1.9 3.2.8-.5.8-1.1.2-1.7-.6-.6-.8-1.6-.6-2.3.3-.7 0-1.6-.7-2.1-.8-.4-1-.3-.5.5zM117.4 252.2c-.4.6-.3.8.4.4.5-.3 1.2-.1 1.4.6.3.8.6.9 1.1.1.4-.6 0-1.3-.8-1.7-.8-.3-1.7 0-2.1.6zM111.6 262.2c.3.5 1 .6 1.5.3 1.3-.9 1.1-1.2-.6-1.2-.8 0-1.2.4-.9.9zM383.3 264.5c0 .8.4 1.2.9.9.5-.3.6-1 .3-1.5-.9-1.3-1.2-1.1-1.2.6zM114.6 271.9c-.3.5.1 1.1.9 1.4.9.4 1.2.1.8-.9-.6-1.6-1-1.7-1.7-.5zM385 275.4c0 .2.7.7 1.6 1 .8.3 1.2.2.9-.4-.6-1-2.5-1.4-2.5-.6zM383.6 277.8c-.6 1 1.7 3.8 3.1 3.7.6 0 1.5-.4 2-.9s.3-.6-.4-.2c-.8.4-1.3.1-1.3-.7 0-1.6-2.7-3.1-3.4-1.9zM395.7 290.3c-.3.8.1 1.4.8 1.4.7 0 1.1-.6.8-1.4-.3-.7-.6-1.3-.8-1.3-.2 0-.5.6-.8 1.3zM396.5 308c-.4.6-1 .8-1.4.5-.5-.2-.8.5-.7 1.7 0 1.2.6 2.3 1.2 2.5.7.2 1.1-.6 1-1.9-.1-1.4.4-2.2 1.2-2 .8.1 1.1-.2.7-.8-.8-1.3-1.2-1.3-2 0zM394.3 330.1c-.2 1.9 1.1 2.6 2.1 1 .3-.5 0-1.4-.7-1.9-1-.8-1.3-.6-1.4.9zM397 342c0 .6-.4.9-.8.6-.5-.3-.9.1-.9.9 0 1.2.3 1.2 1.6.3.9-.7 1.7-1.3 1.9-1.4.2-.1-.1-.5-.7-.9-.6-.3-1.1-.1-1.1.5zM397.5 370c-.3.5-.1 1 .4 1 .6 0 1.1-.5 1.1-1 0-.6-.2-1-.4-1-.3 0-.8.4-1.1 1zM107 386c0 .5.5 1 1.1 1 .5 0 .7-.5.4-1-.3-.6-.8-1-1.1-1-.2 0-.4.4-.4 1zM381.4 387.2c-.4.7-.4 1 .1.6.4-.4 1.5-.2 2.4.5 1.4 1.1 1.4 1 .2-.6-1.6-2-1.8-2.1-2.7-.5zM179.9 399.2c-.6 1.3-.8 2-.4 1.6.5-.4 1.5-.2 2.3.5 1.1.8 1.4.8.9 0-1-1.6 1.2-2.8 2.6-1.4 1.4 1.4 3 1.4 2.5-.1-.6-1.6-4-1.9-5.7-.5-1.2 1-1.4.9-.8-.6.9-2.5 0-2.1-1.4.5zM370 398.5c-.7.9-.8 1.5-.2 1.5.5 0 1.2-.7 1.6-1.5.3-.8.4-1.5.2-1.5s-.9.7-1.6 1.5zM377.6 399.3c.3 1 .9 1.5 1.2 1.2.3-.3 0-1.1-.7-1.8-1-.9-1.1-.8-.5.6zM125 402c0 .5.5 1 1.1 1 .5 0 .7-.5.4-1-.3-.6-.8-1-1.1-1-.2 0-.4.4-.4 1zM164.7 402.1c.7.7 1.5 1 1.8.7.3-.3-.2-.9-1.2-1.2-1.4-.6-1.5-.5-.6.5zM127.5 403.9c-.3.5-.2 1.2.3 1.5.5.3.9-.1.9-.9 0-1.7-.3-1.9-1.2-.6zM163 403.7c0 .6.8 1.7 1.8 2.4 1.6 1.3 1.6 1.3.2-.6-.8-1.1-1.6-2.2-1.7-2.4-.2-.2-.3 0-.3.6zM187.6 406.3c.3 1 .9 1.5 1.2 1.2.3-.3 0-1.1-.7-1.8-1-.9-1.1-.8-.5.6zM186.5 412c-.3.6.1.7.9.4 1.8-.7 2.1-1.4.7-1.4-.6 0-1.3.4-1.6 1zM144.6 413.3c.3 1 .9 1.5 1.2 1.2.3-.3 0-1.1-.7-1.8-1-.9-1.1-.8-.5.6zM139 414c0 .5.5 1 1 1 .6 0 1-.5 1-1 0-.6-.4-1-1-1-.5 0-1 .4-1 1zM338 415.8c-.6 1.4-.8 2.7-.5 3 .3.4.8-.4 1.2-1.6.3-1.2.9-2 1.3-1.7.4.3 1-.1 1.3-.8.9-2.5-2.1-1.4-3.3 1.1zM146.1 416.3c-1.3 2.1-1.2 2.1.5.5 1-1 1.6-2 1.3-2.2-.3-.3-1.1.5-1.8 1.7zM153.3 415.5c0 .8.4 1.2.9.9.5-.3.6-1 .3-1.5-.9-1.3-1.2-1.1-1.2.6zM341.6 416.7c-.6 1.4-.5 1.5.5.6.7-.7 1-1.5.7-1.8-.3-.3-.9.2-1.2 1.2zM181 424c-.9.6-1 1-.3 1 .6 0 1.5-.5 1.8-1 .8-1.2.4-1.2-1.5 0zM335 423.9c0 1.3 1.2 2 2.6 1.4 2-.8 1.7-1.9-.6-2-1.1-.1-2 .2-2 .6zM172.9 444.4c.6.7.7 1.6.3 2.1-.4.4.3.2 1.5-.6 2.5-1.5 2.4-1.8-.7-2.4-1.7-.3-1.9-.1-1.1.9zM323.6 451.8c-.3.5.1.9.9.9s1.2-.4.9-.9c-.3-.4-.7-.8-.9-.8-.2 0-.6.4-.9.8zM322 458.5c-.7.8-1.1 1.5-.9 1.6 3.1.6 3.7.5 3.5-.7-.3-2.2-1.2-2.5-2.6-.9zM242.6 470.6c-.9 2.4-.7 3.1.5 1.4.9-1.2 1-1.1.6.8-.3 1.2-.1 2 .4 1.6 1.2-.7 1.2-4.1 0-4.8-.5-.3-1.2.1-1.5 1zM247 470.5c-.7.8-1.1 1.5-.9 1.6 3.1.7 6.9.5 6.9-.4 0-.6.6-.3 1.3.6.8 1.1 1.7 1.4 2.6.8 2.2-1.4.4-3-3.2-2.7-1.7.2-3.7-.1-4.3-.6-.7-.5-1.6-.2-2.4.7zm2.4.3c.3.5-.1.9-.9.9s-1.2-.4-.9-.9c.3-.4.7-.8.9-.8.2 0 .6.4.9.8zm7.6.6c0 .3-.4.8-1 1.1-.5.3-1 .1-1-.4 0-.6.5-1.1 1-1.1.6 0 1 .2 1 .4zM323.6 478.1c.2.4-.2 1-.8 1.2-.8.4-.9.6-.2.6.6.1 1.7-.5 2.3-1.2.8-1 .7-1.4-.4-1.4-.8 0-1.2.4-.9.8zM234.7 485c1 1.1 1.9 2 2.1 2 .1 0-.2-.9-.8-2-.6-1.1-1.5-2-2-2-.6 0-.2.9.7 2zM321.6 488.6c-.5 1.3-.4 1.4.7.6.8-.7 1.8-.8 2.2-.4.5.4.5.1.1-.6-1-1.7-2.3-1.5-3 .4zM259.5 490c-.3.5-.1 1 .4 1 .6 0 1.1-.5 1.1-1 0-.6-.2-1-.4-1-.3 0-.8.4-1.1 1zM322.8 491.7c.7.3 1.6.2 1.9-.1.4-.3-.2-.6-1.3-.5-1.1 0-1.4.3-.6.6zM237.3 496.5c0 .8.4 1.2.9.9.5-.3.6-1 .3-1.5-.9-1.3-1.2-1.1-1.2.6zM321.5 496c.3.5.8 1 1.1 1 .2 0 .4-.5.4-1 0-.6-.5-1-1.1-1-.5 0-.7.4-.4 1zM339.5 506c.3.5.8 1 1.1 1 .2 0 .4-.5.4-1 0-.6-.5-1-1.1-1-.5 0-.7.4-.4 1zM262.5 506.8c-.6.4-1.2 1.8-1.2 3.1-.2 2.4.7 2.4 1.1-.1.1-.7.5-1.9.9-2.6.9-1.4.7-1.5-.8-.4z"/></svg>